<?xml version="1.0" encoding="UTF-8" standalone="no"?>
<!DOCTYPE svg PUBLIC "-//W3C//DTD SVG 1.1//EN" "http://www.w3.org/Graphics/SVG/1.1/DTD/svg11.dtd">
<!-- Generated by Microsoft Visio, SVG Export testbed-t1-lag.svg Page-1 -->
<svg xmlns="http://www.w3.org/2000/svg" xmlns:xlink="http://www.w3.org/1999/xlink" xmlns:ev="http://www.w3.org/2001/xml-events"
		xmlns:v="http://schemas.microsoft.com/visio/2003/SVGExtensions/" width="8.5in" height="11in" viewBox="0 0 612 792"
		xml:space="preserve" color-interpolation-filters="sRGB" class="st5">
	<v:documentProperties v:langID="1033" v:viewMarkup="false">
		<v:userDefs>
			<v:ud v:nameU="msvNoAutoConnect" v:val="VT0(1):26"/>
		</v:userDefs>
	</v:documentProperties>

	<style type="text/css">
	<![CDATA[
		.st1 {fill:#ffffff;stroke:#000000;stroke-linecap:round;stroke-linejoin:round;stroke-width:0.75}
		.st2 {fill:#000000;font-family:Calibri;font-size:1.00001em}
		.st3 {stroke:#000000;stroke-linecap:round;stroke-linejoin:round;stroke-width:0.75}
		.st4 {fill:none;stroke:none;stroke-linecap:round;stroke-linejoin:round;stroke-width:0.75}
		.st5 {fill:none;fill-rule:evenodd;font-size:12px;overflow:visible;stroke-linecap:square;stroke-miterlimit:3}
	]]>
	</style>

	<g v:mID="0" v:index="1" v:groupContext="foregroundPage">
		<title>Page-1</title>
		<v:pageProperties v:drawingScale="1" v:pageScale="1" v:drawingUnits="19" v:shadowOffsetX="9" v:shadowOffsetY="-9"/>
		<g id="shape1-1" v:mID="1" v:groupContext="shape" transform="translate(6.74999,-386.095)">
			<title>Sheet.1</title>
			<desc>DUT</desc>
			<v:textBlock v:margins="rect(4,4,4,4)"/>
			<v:textRect cx="266.625" cy="781.875" width="533.26" height="20.25"/>
			<rect x="0" y="771.75" width="533.25" height="20.25" class="st1"/>
			<text x="256.16" y="785.48" class="st2" v:langID="1033"><v:paragraph v:horizAlign="1"/><v:tabList/>DUT</text>		</g>
		<g id="shape2-4" v:mID="2" v:groupContext="shape" transform="translate(24.75,-449.095)">
			<title>Sheet.2</title>
			<desc>VM</desc>
			<v:textBlock v:margins="rect(4,4,4,4)"/>
			<v:textRect cx="13.5" cy="781.875" width="27.01" height="20.25"/>
			<rect x="0" y="771.75" width="27" height="20.25" class="st1"/>
			<text x="4.97" y="785.48" class="st2" v:langID="1033"><v:paragraph v:horizAlign="1"/><v:tabList/>VM</text>		</g>
		<g id="shape4-7" v:mID="4" v:groupContext="shape" transform="translate(92.25,-449.095)">
			<title>Sheet.4</title>
			<desc>VM</desc>
			<v:textBlock v:margins="rect(4,4,4,4)"/>
			<v:textRect cx="13.5" cy="781.875" width="27.01" height="20.25"/>
			<rect x="0" y="771.75" width="27" height="20.25" class="st1"/>
			<text x="4.97" y="785.48" class="st2" v:langID="1033"><v:paragraph v:horizAlign="1"/><v:tabList/>VM</text>		</g>
		<g id="shape6-10" v:mID="6" v:groupContext="shape" transform="translate(159.75,-449.095)">
			<title>Sheet.6</title>
			<desc>VM</desc>
			<v:textBlock v:margins="rect(4,4,4,4)"/>
			<v:textRect cx="13.5" cy="781.875" width="27.01" height="20.25"/>
			<rect x="0" y="771.75" width="27" height="20.25" class="st1"/>
			<text x="4.97" y="785.48" class="st2" v:langID="1033"><v:paragraph v:horizAlign="1"/><v:tabList/>VM</text>		</g>
		<g id="shape8-13" v:mID="8" v:groupContext="shape" transform="translate(227.25,-449.095)">
			<title>Sheet.8</title>
			<desc>VM</desc>
			<v:textBlock v:margins="rect(4,4,4,4)"/>
			<v:textRect cx="13.5" cy="781.875" width="27.01" height="20.25"/>
			<rect x="0" y="771.75" width="27" height="20.25" class="st1"/>
			<text x="4.97" y="785.48" class="st2" v:langID="1033"><v:paragraph v:horizAlign="1"/><v:tabList/>VM</text>		</g>
		<g id="shape10-16" v:mID="10" v:groupContext="shape" transform="translate(294.75,-449.095)">
			<title>Sheet.10</title>
			<desc>VM</desc>
			<v:textBlock v:margins="rect(4,4,4,4)"/>
			<v:textRect cx="13.5" cy="781.875" width="27.01" height="20.25"/>
			<rect x="0" y="771.75" width="27" height="20.25" class="st1"/>
			<text x="4.97" y="785.48" class="st2" v:langID="1033"><v:paragraph v:horizAlign="1"/><v:tabList/>VM</text>		</g>
		<g id="shape12-19" v:mID="12" v:groupContext="shape" transform="translate(362.25,-449.095)">
			<title>Sheet.12</title>
			<desc>VM</desc>
			<v:textBlock v:margins="rect(4,4,4,4)"/>
			<v:textRect cx="13.5" cy="781.875" width="27.01" height="20.25"/>
			<rect x="0" y="771.75" width="27" height="20.25" class="st1"/>
			<text x="4.97" y="785.48" class="st2" v:langID="1033"><v:paragraph v:horizAlign="1"/><v:tabList/>VM</text>		</g>
		<g id="shape14-22" v:mID="14" v:groupContext="shape" transform="translate(429.75,-449.095)">
			<title>Sheet.14</title>
			<desc>VM</desc>
			<v:textBlock v:margins="rect(4,4,4,4)"/>
			<v:textRect cx="13.5" cy="781.875" width="27.01" height="20.25"/>
			<rect x="0" y="771.75" width="27" height="20.25" class="st1"/>
			<text x="4.97" y="785.48" class="st2" v:langID="1033"><v:paragraph v:horizAlign="1"/><v:tabList/>VM</text>		</g>
		<g id="shape16-25" v:mID="16" v:groupContext="shape" transform="translate(497.25,-449.095)">
			<title>Sheet.16</title>
			<desc>VM</desc>
			<v:textBlock v:margins="rect(4,4,4,4)"/>
			<v:textRect cx="13.5" cy="781.875" width="27.01" height="20.25"/>
			<rect x="0" y="771.75" width="27" height="20.25" class="st1"/>
			<text x="4.97" y="785.48" class="st2" v:langID="1033"><v:paragraph v:horizAlign="1"/><v:tabList/>VM</text>		</g>
		<g id="shape18-28" v:mID="18" v:groupContext="shape" transform="translate(6.74999,-323.095)">
			<title>Sheet.18</title>
			<desc>VM</desc>
			<v:textBlock v:margins="rect(4,4,4,4)"/>
			<v:textRect cx="13.5" cy="781.875" width="27.01" height="20.25"/>
			<rect x="0" y="771.75" width="27" height="20.25" class="st1"/>
			<text x="4.97" y="785.48" class="st2" v:langID="1033"><v:paragraph v:horizAlign="1"/><v:tabList/>VM</text>		</g>
		<g id="shape19-31" v:mID="19" v:groupContext="shape" transform="translate(40.5,-323.095)">
			<title>Sheet.19</title>
			<desc>VM</desc>
			<v:textBlock v:margins="rect(4,4,4,4)"/>
			<v:textRect cx="13.5" cy="781.875" width="27.01" height="20.25"/>
			<rect x="0" y="771.75" width="27" height="20.25" class="st1"/>
			<text x="4.97" y="785.48" class="st2" v:langID="1033"><v:paragraph v:horizAlign="1"/><v:tabList/>VM</text>		</g>
		<g id="shape20-34" v:mID="20" v:groupContext="shape" transform="translate(74.25,-323.095)">
			<title>Sheet.20</title>
			<desc>VM</desc>
			<v:textBlock v:margins="rect(4,4,4,4)"/>
			<v:textRect cx="13.5" cy="781.875" width="27.01" height="20.25"/>
			<rect x="0" y="771.75" width="27" height="20.25" class="st1"/>
			<text x="4.97" y="785.48" class="st2" v:langID="1033"><v:paragraph v:horizAlign="1"/><v:tabList/>VM</text>		</g>
		<g id="shape21-37" v:mID="21" v:groupContext="shape" transform="translate(108,-323.095)">
			<title>Sheet.21</title>
			<desc>VM</desc>
			<v:textBlock v:margins="rect(4,4,4,4)"/>
			<v:textRect cx="13.5" cy="781.875" width="27.01" height="20.25"/>
			<rect x="0" y="771.75" width="27" height="20.25" class="st1"/>
			<text x="4.97" y="785.48" class="st2" v:langID="1033"><v:paragraph v:horizAlign="1"/><v:tabList/>VM</text>		</g>
		<g id="shape22-40" v:mID="22" v:groupContext="shape" transform="translate(141.75,-323.095)">
			<title>Sheet.22</title>
			<desc>VM</desc>
			<v:textBlock v:margins="rect(4,4,4,4)"/>
			<v:textRect cx="13.5" cy="781.875" width="27.01" height="20.25"/>
			<rect x="0" y="771.75" width="27" height="20.25" class="st1"/>
			<text x="4.97" y="785.48" class="st2" v:langID="1033"><v:paragraph v:horizAlign="1"/><v:tabList/>VM</text>		</g>
		<g id="shape23-43" v:mID="23" v:groupContext="shape" transform="translate(175.5,-323.095)">
			<title>Sheet.23</title>
			<desc>VM</desc>
			<v:textBlock v:margins="rect(4,4,4,4)"/>
			<v:textRect cx="13.5" cy="781.875" width="27.01" height="20.25"/>
			<rect x="0" y="771.75" width="27" height="20.25" class="st1"/>
			<text x="4.97" y="785.48" class="st2" v:langID="1033"><v:paragraph v:horizAlign="1"/><v:tabList/>VM</text>		</g>
		<g id="shape24-46" v:mID="24" v:groupContext="shape" transform="translate(209.25,-323.095)">
			<title>Sheet.24</title>
			<desc>VM</desc>
			<v:textBlock v:margins="rect(4,4,4,4)"/>
			<v:textRect cx="13.5" cy="781.875" width="27.01" height="20.25"/>
			<rect x="0" y="771.75" width="27" height="20.25" class="st1"/>
			<text x="4.97" y="785.48" class="st2" v:langID="1033"><v:paragraph v:horizAlign="1"/><v:tabList/>VM</text>		</g>
		<g id="shape25-49" v:mID="25" v:groupContext="shape" transform="translate(243,-323.095)">
			<title>Sheet.25</title>
			<desc>VM</desc>
			<v:textBlock v:margins="rect(4,4,4,4)"/>
			<v:textRect cx="13.5" cy="781.875" width="27.01" height="20.25"/>
			<rect x="0" y="771.75" width="27" height="20.25" class="st1"/>
			<text x="4.97" y="785.48" class="st2" v:langID="1033"><v:paragraph v:horizAlign="1"/><v:tabList/>VM</text>		</g>
		<g id="shape26-52" v:mID="26" v:groupContext="shape" transform="translate(276.75,-323.095)">
			<title>Sheet.26</title>
			<desc>VM</desc>
			<v:textBlock v:margins="rect(4,4,4,4)"/>
			<v:textRect cx="13.5" cy="781.875" width="27.01" height="20.25"/>
			<rect x="0" y="771.75" width="27" height="20.25" class="st1"/>
			<text x="4.97" y="785.48" class="st2" v:langID="1033"><v:paragraph v:horizAlign="1"/><v:tabList/>VM</text>		</g>
		<g id="shape27-55" v:mID="27" v:groupContext="shape" transform="translate(310.5,-323.095)">
			<title>Sheet.27</title>
			<desc>VM</desc>
			<v:textBlock v:margins="rect(4,4,4,4)"/>
			<v:textRect cx="13.5" cy="781.875" width="27.01" height="20.25"/>
			<rect x="0" y="771.75" width="27" height="20.25" class="st1"/>
			<text x="4.97" y="785.48" class="st2" v:langID="1033"><v:paragraph v:horizAlign="1"/><v:tabList/>VM</text>		</g>
		<g id="shape28-58" v:mID="28" v:groupContext="shape" transform="translate(344.25,-323.095)">
			<title>Sheet.28</title>
			<desc>VM</desc>
			<v:textBlock v:margins="rect(4,4,4,4)"/>
			<v:textRect cx="13.5" cy="781.875" width="27.01" height="20.25"/>
			<rect x="0" y="771.75" width="27" height="20.25" class="st1"/>
			<text x="4.97" y="785.48" class="st2" v:langID="1033"><v:paragraph v:horizAlign="1"/><v:tabList/>VM</text>		</g>
		<g id="shape29-61" v:mID="29" v:groupContext="shape" transform="translate(378,-323.095)">
			<title>Sheet.29</title>
			<desc>VM</desc>
			<v:textBlock v:margins="rect(4,4,4,4)"/>
			<v:textRect cx="13.5" cy="781.875" width="27.01" height="20.25"/>
			<rect x="0" y="771.75" width="27" height="20.25" class="st1"/>
			<text x="4.97" y="785.48" class="st2" v:langID="1033"><v:paragraph v:horizAlign="1"/><v:tabList/>VM</text>		</g>
		<g id="shape30-64" v:mID="30" v:groupContext="shape" transform="translate(411.75,-323.095)">
			<title>Sheet.30</title>
			<desc>VM</desc>
			<v:textBlock v:margins="rect(4,4,4,4)"/>
			<v:textRect cx="13.5" cy="781.875" width="27.01" height="20.25"/>
			<rect x="0" y="771.75" width="27" height="20.25" class="st1"/>
			<text x="4.97" y="785.48" class="st2" v:langID="1033"><v:paragraph v:horizAlign="1"/><v:tabList/>VM</text>		</g>
		<g id="shape31-67" v:mID="31" v:groupContext="shape" transform="translate(445.5,-323.095)">
			<title>Sheet.31</title>
			<desc>VM</desc>
			<v:textBlock v:margins="rect(4,4,4,4)"/>
			<v:textRect cx="13.5" cy="781.875" width="27.01" height="20.25"/>
			<rect x="0" y="771.75" width="27" height="20.25" class="st1"/>
			<text x="4.97" y="785.48" class="st2" v:langID="1033"><v:paragraph v:horizAlign="1"/><v:tabList/>VM</text>		</g>
		<g id="shape32-70" v:mID="32" v:groupContext="shape" transform="translate(479.25,-323.095)">
			<title>Sheet.32</title>
			<desc>VM</desc>
			<v:textBlock v:margins="rect(4,4,4,4)"/>
			<v:textRect cx="13.5" cy="781.875" width="27.01" height="20.25"/>
			<rect x="0" y="771.75" width="27" height="20.25" class="st1"/>
			<text x="4.97" y="785.48" class="st2" v:langID="1033"><v:paragraph v:horizAlign="1"/><v:tabList/>VM</text>		</g>
		<g id="shape33-73" v:mID="33" v:groupContext="shape" transform="translate(513,-323.095)">
			<title>Sheet.33</title>
			<desc>VM</desc>
			<v:textBlock v:margins="rect(4,4,4,4)"/>
			<v:textRect cx="13.5" cy="781.875" width="27.01" height="20.25"/>
			<rect x="0" y="771.75" width="27" height="20.25" class="st1"/>
			<text x="4.97" y="785.48" class="st2" v:langID="1033"><v:paragraph v:horizAlign="1"/><v:tabList/>VM</text>		</g>
		<g id="shape34-76" v:mID="34" v:groupContext="shape" transform="translate(825.75,342.905) rotate(90)">
			<title>Sheet.34</title>
			<path d="M0 792 L42.75 792" class="st3"/>
		</g>
		<g id="shape35-79" v:mID="35" v:groupContext="shape" transform="translate(833.625,342.905) rotate(90)">
			<title>Sheet.35</title>
			<path d="M0 792 L42.75 792" class="st3"/>
		</g>
		<g id="shape50-82" v:mID="50" v:groupContext="shape" transform="translate(812.25,405.906) rotate(90)">
			<title>Sheet.50</title>
			<path d="M0 792 L42.75 792" class="st3"/>
		</g>
		<g id="shape51-85" v:mID="51" v:groupContext="shape" transform="translate(846.375,405.906) rotate(90)">
			<title>Sheet.51</title>
			<path d="M0 792 L42.75 792" class="st3"/>
		</g>
		<g id="shape52-88" v:mID="52" v:groupContext="shape" transform="translate(879.75,405.906) rotate(90)">
			<title>Sheet.52</title>
			<path d="M0 792 L42.75 792" class="st3"/>
		</g>
		<g id="shape53-91" v:mID="53" v:groupContext="shape" transform="translate(913.875,405.906) rotate(90)">
			<title>Sheet.53</title>
			<path d="M0 792 L42.75 792" class="st3"/>
		</g>
		<g id="shape54-94" v:mID="54" v:groupContext="shape" transform="translate(947.25,406.468) rotate(90)">
			<title>Sheet.54</title>
			<path d="M0 792 L42.75 792" class="st3"/>
		</g>
		<g id="shape55-97" v:mID="55" v:groupContext="shape" transform="translate(981.375,406.468) rotate(90)">
			<title>Sheet.55</title>
			<path d="M0 792 L42.75 792" class="st3"/>
		</g>
		<g id="shape56-100" v:mID="56" v:groupContext="shape" transform="translate(1014.75,406.468) rotate(90)">
			<title>Sheet.56</title>
			<path d="M0 792 L42.75 792" class="st3"/>
		</g>
		<g id="shape57-103" v:mID="57" v:groupContext="shape" transform="translate(1048.87,406.468) rotate(90)">
			<title>Sheet.57</title>
			<path d="M0 792 L42.75 792" class="st3"/>
		</g>
		<g id="shape58-106" v:mID="58" v:groupContext="shape" transform="translate(1082.25,405.906) rotate(90)">
			<title>Sheet.58</title>
			<path d="M0 792 L42.75 792" class="st3"/>
		</g>
		<g id="shape59-109" v:mID="59" v:groupContext="shape" transform="translate(1116.37,405.906) rotate(90)">
			<title>Sheet.59</title>
			<path d="M0 792 L42.75 792" class="st3"/>
		</g>
		<g id="shape60-112" v:mID="60" v:groupContext="shape" transform="translate(1149.75,405.906) rotate(90)">
			<title>Sheet.60</title>
			<path d="M0 792 L42.75 792" class="st3"/>
		</g>
		<g id="shape61-115" v:mID="61" v:groupContext="shape" transform="translate(1183.87,405.906) rotate(90)">
			<title>Sheet.61</title>
			<path d="M0 792 L42.75 792" class="st3"/>
		</g>
		<g id="shape62-118" v:mID="62" v:groupContext="shape" transform="translate(1217.25,406.468) rotate(90)">
			<title>Sheet.62</title>
			<path d="M0 792 L42.75 792" class="st3"/>
		</g>
		<g id="shape63-121" v:mID="63" v:groupContext="shape" transform="translate(1251.37,407.031) rotate(90)">
			<title>Sheet.63</title>
			<path d="M0 792 L42.75 792" class="st3"/>
		</g>
		<g id="shape64-124" v:mID="64" v:groupContext="shape" transform="translate(1284.75,405.906) rotate(90)">
			<title>Sheet.64</title>
			<path d="M0 792 L42.75 792" class="st3"/>
		</g>
		<g id="shape65-127" v:mID="65" v:groupContext="shape" transform="translate(1318.87,405.906) rotate(90)">
			<title>Sheet.65</title>
			<path d="M0 792 L42.75 792" class="st3"/>
		</g>
		<g id="shape66-130" v:mID="66" v:groupContext="shape" transform="translate(538.875,-449.345)">
			<title>Sheet.66</title>
			<desc>T2 (Spines)</desc>
			<v:textBlock v:margins="rect(4,4,4,4)"/>
			<v:textRect cx="33.1875" cy="782" width="66.38" height="20"/>
			<rect x="0" y="772" width="66.375" height="20" class="st4"/>
			<text x="6.46" y="785.6" class="st2" v:langID="1033"><v:paragraph v:horizAlign="1"/><v:tabList/>T2 (Spines)</text>		</g>
		<g id="shape67-133" v:mID="67" v:groupContext="shape" transform="translate(540.5,-323.095)">
			<title>Sheet.67</title>
			<desc>T0 (TORs)</desc>
			<v:textBlock v:margins="rect(4,4,4,4)"/>
			<v:textRect cx="28.4375" cy="782" width="56.88" height="20"/>
			<rect x="0" y="772" width="56.875" height="20" class="st4"/>
			<text x="4.98" y="785.6" class="st2" v:langID="1033"><v:paragraph v:horizAlign="1"/><v:tabList/>T0 (TORs)</text>		</g>
		<g id="shape68-136" v:mID="68" v:groupContext="shape" transform="translate(894.375,343.125) rotate(90)">
			<title>Sheet.68</title>
			<path d="M0 792 L42.75 792" class="st3"/>
		</g>
		<g id="shape69-139" v:mID="69" v:groupContext="shape" transform="translate(902.25,343.125) rotate(90)">
			<title>Sheet.69</title>
			<path d="M0 792 L42.75 792" class="st3"/>
		</g>
		<g id="shape70-142" v:mID="70" v:groupContext="shape" transform="translate(961.875,343.125) rotate(90)">
			<title>Sheet.70</title>
			<path d="M0 792 L42.75 792" class="st3"/>
		</g>
		<g id="shape71-145" v:mID="71" v:groupContext="shape" transform="translate(969.75,343.125) rotate(90)">
			<title>Sheet.71</title>
			<path d="M0 792 L42.75 792" class="st3"/>
		</g>
		<g id="shape74-148" v:mID="74" v:groupContext="shape" transform="translate(1028.81,343.125) rotate(90)">
			<title>Sheet.74</title>
			<path d="M0 792 L42.75 792" class="st3"/>
		</g>
		<g id="shape75-151" v:mID="75" v:groupContext="shape" transform="translate(1036.69,343.125) rotate(90)">
			<title>Sheet.75</title>
			<path d="M0 792 L42.75 792" class="st3"/>
		</g>
		<g id="shape78-154" v:mID="78" v:groupContext="shape" transform="translate(1096.88,343.125) rotate(90)">
			<title>Sheet.78</title>
			<path d="M0 792 L42.75 792" class="st3"/>
		</g>
		<g id="shape79-157" v:mID="79" v:groupContext="shape" transform="translate(1104.75,343.125) rotate(90)">
			<title>Sheet.79</title>
			<path d="M0 792 L42.75 792" class="st3"/>
		</g>
		<g id="shape80-160" v:mID="80" v:groupContext="shape" transform="translate(1164.38,343.125) rotate(90)">
			<title>Sheet.80</title>
			<path d="M0 792 L42.75 792" class="st3"/>
		</g>
		<g id="shape81-163" v:mID="81" v:groupContext="shape" transform="translate(1172.25,343.125) rotate(90)">
			<title>Sheet.81</title>
			<path d="M0 792 L42.75 792" class="st3"/>
		</g>
		<g id="shape82-166" v:mID="82" v:groupContext="shape" transform="translate(1231.31,343.125) rotate(90)">
			<title>Sheet.82</title>
			<path d="M0 792 L42.75 792" class="st3"/>
		</g>
		<g id="shape83-169" v:mID="83" v:groupContext="shape" transform="translate(1239.19,343.125) rotate(90)">
			<title>Sheet.83</title>
			<path d="M0 792 L42.75 792" class="st3"/>
		</g>
		<g id="shape84-172" v:mID="84" v:groupContext="shape" transform="translate(1299.38,343.125) rotate(90)">
			<title>Sheet.84</title>
			<path d="M0 792 L42.75 792" class="st3"/>
		</g>
		<g id="shape85-175" v:mID="85" v:groupContext="shape" transform="translate(1307.25,343.125) rotate(90)">
			<title>Sheet.85</title>
			<path d="M0 792 L42.75 792" class="st3"/>
		</g>
	</g>
</svg>
