<?xml version="1.0" encoding="UTF-8" standalone="no"?>
<!DOCTYPE svg PUBLIC "-//W3C//DTD SVG 1.1//EN" "http://www.w3.org/Graphics/SVG/1.1/DTD/svg11.dtd">
<!-- Generated by Microsoft Visio, SVG Export testbed-t0.svg Page-1 -->
<svg xmlns="http://www.w3.org/2000/svg" xmlns:xlink="http://www.w3.org/1999/xlink" xmlns:ev="http://www.w3.org/2001/xml-events"
		xmlns:v="http://schemas.microsoft.com/visio/2003/SVGExtensions/" width="8.5in" height="11in" viewBox="0 0 612 792"
		xml:space="preserve" color-interpolation-filters="sRGB" class="st5">
	<v:documentProperties v:langID="1033" v:viewMarkup="false">
		<v:userDefs>
			<v:ud v:nameU="msvNoAutoConnect" v:val="VT0(1):26"/>
		</v:userDefs>
	</v:documentProperties>

	<style type="text/css">
	<![CDATA[
		.st1 {fill:#ffffff;stroke:#000000;stroke-linecap:round;stroke-linejoin:round;stroke-width:0.75}
		.st2 {fill:#000000;font-family:Calibri;font-size:1.00001em}
		.st3 {stroke:#000000;stroke-linecap:round;stroke-linejoin:round;stroke-width:0.75}
		.st4 {fill:none;stroke:none;stroke-linecap:round;stroke-linejoin:round;stroke-width:0.75}
		.st5 {fill:none;fill-rule:evenodd;font-size:12px;overflow:visible;stroke-linecap:square;stroke-miterlimit:3}
	]]>
	</style>

	<g v:mID="0" v:index="1" v:groupContext="foregroundPage">
		<title>Page-1</title>
		<v:pageProperties v:drawingScale="1" v:pageScale="1" v:drawingUnits="19" v:shadowOffsetX="9" v:shadowOffsetY="-9"/>
		<g id="shape3-1" v:mID="3" v:groupContext="shape" transform="translate(6.74999,-386.095)">
			<title>Sheet.3</title>
			<desc>DUT</desc>
			<v:textBlock v:margins="rect(4,4,4,4)"/>
			<v:textRect cx="266.625" cy="781.875" width="533.26" height="20.25"/>
			<rect x="0" y="771.75" width="533.25" height="20.25" class="st1"/>
			<text x="256.16" y="785.48" class="st2" v:langID="1033"><v:paragraph v:horizAlign="1"/><v:tabList/>DUT</text>		</g>
		<g id="shape4-4" v:mID="4" v:groupContext="shape" transform="translate(24.75,-449.095)">
			<title>Sheet.4</title>
			<desc>VM</desc>
			<v:textBlock v:margins="rect(4,4,4,4)"/>
			<v:textRect cx="13.5" cy="781.875" width="27.01" height="20.25"/>
			<rect x="0" y="771.75" width="27" height="20.25" class="st1"/>
			<text x="4.97" y="785.48" class="st2" v:langID="1033"><v:paragraph v:horizAlign="1"/><v:tabList/>VM</text>		</g>
		<g id="shape5-7" v:mID="5" v:groupContext="shape" transform="translate(171,-448.189)">
			<title>Sheet.5</title>
			<desc>VM</desc>
			<v:textBlock v:margins="rect(4,4,4,4)"/>
			<v:textRect cx="13.5" cy="781.875" width="27.01" height="20.25"/>
			<rect x="0" y="771.75" width="27" height="20.25" class="st1"/>
			<text x="4.97" y="785.48" class="st2" v:langID="1033"><v:paragraph v:horizAlign="1"/><v:tabList/>VM</text>		</g>
		<g id="shape6-10" v:mID="6" v:groupContext="shape" transform="translate(355.5,-448.189)">
			<title>Sheet.6</title>
			<desc>VM</desc>
			<v:textBlock v:margins="rect(4,4,4,4)"/>
			<v:textRect cx="13.5" cy="781.875" width="27.01" height="20.25"/>
			<rect x="0" y="771.75" width="27" height="20.25" class="st1"/>
			<text x="4.97" y="785.48" class="st2" v:langID="1033"><v:paragraph v:horizAlign="1"/><v:tabList/>VM</text>		</g>
		<g id="shape7-13" v:mID="7" v:groupContext="shape" transform="translate(495,-448.189)">
			<title>Sheet.7</title>
			<desc>VM</desc>
			<v:textBlock v:margins="rect(4,4,4,4)"/>
			<v:textRect cx="13.5" cy="781.875" width="27.01" height="20.25"/>
			<rect x="0" y="771.75" width="27" height="20.25" class="st1"/>
			<text x="4.97" y="785.48" class="st2" v:langID="1033"><v:paragraph v:horizAlign="1"/><v:tabList/>VM</text>		</g>
		<g id="shape30-16" v:mID="30" v:groupContext="shape" transform="translate(812.25,405.906) rotate(90)">
			<title>Sheet.30</title>
			<path d="M0 792 L42.75 792" class="st3"/>
		</g>
		<g id="shape31-19" v:mID="31" v:groupContext="shape" transform="translate(846.375,405.906) rotate(90)">
			<title>Sheet.31</title>
			<path d="M0 792 L42.75 792" class="st3"/>
		</g>
		<g id="shape32-22" v:mID="32" v:groupContext="shape" transform="translate(879.75,405.906) rotate(90)">
			<title>Sheet.32</title>
			<path d="M0 792 L42.75 792" class="st3"/>
		</g>
		<g id="shape33-25" v:mID="33" v:groupContext="shape" transform="translate(913.875,405.906) rotate(90)">
			<title>Sheet.33</title>
			<path d="M0 792 L42.75 792" class="st3"/>
		</g>
		<g id="shape34-28" v:mID="34" v:groupContext="shape" transform="translate(947.25,406.468) rotate(90)">
			<title>Sheet.34</title>
			<path d="M0 792 L42.75 792" class="st3"/>
		</g>
		<g id="shape35-31" v:mID="35" v:groupContext="shape" transform="translate(981.375,406.468) rotate(90)">
			<title>Sheet.35</title>
			<path d="M0 792 L42.75 792" class="st3"/>
		</g>
		<g id="shape36-34" v:mID="36" v:groupContext="shape" transform="translate(1014.75,406.468) rotate(90)">
			<title>Sheet.36</title>
			<path d="M0 792 L42.75 792" class="st3"/>
		</g>
		<g id="shape37-37" v:mID="37" v:groupContext="shape" transform="translate(1048.87,406.468) rotate(90)">
			<title>Sheet.37</title>
			<path d="M0 792 L42.75 792" class="st3"/>
		</g>
		<g id="shape38-40" v:mID="38" v:groupContext="shape" transform="translate(1082.25,405.906) rotate(90)">
			<title>Sheet.38</title>
			<path d="M0 792 L42.75 792" class="st3"/>
		</g>
		<g id="shape39-43" v:mID="39" v:groupContext="shape" transform="translate(1116.37,405.906) rotate(90)">
			<title>Sheet.39</title>
			<path d="M0 792 L42.75 792" class="st3"/>
		</g>
		<g id="shape40-46" v:mID="40" v:groupContext="shape" transform="translate(1149.75,405.906) rotate(90)">
			<title>Sheet.40</title>
			<path d="M0 792 L42.75 792" class="st3"/>
		</g>
		<g id="shape41-49" v:mID="41" v:groupContext="shape" transform="translate(1183.87,405.906) rotate(90)">
			<title>Sheet.41</title>
			<path d="M0 792 L42.75 792" class="st3"/>
		</g>
		<g id="shape42-52" v:mID="42" v:groupContext="shape" transform="translate(1217.25,406.468) rotate(90)">
			<title>Sheet.42</title>
			<path d="M0 792 L42.75 792" class="st3"/>
		</g>
		<g id="shape43-55" v:mID="43" v:groupContext="shape" transform="translate(1251.37,407.031) rotate(90)">
			<title>Sheet.43</title>
			<path d="M0 792 L42.75 792" class="st3"/>
		</g>
		<g id="shape44-58" v:mID="44" v:groupContext="shape" transform="translate(1284.75,405.906) rotate(90)">
			<title>Sheet.44</title>
			<path d="M0 792 L42.75 792" class="st3"/>
		</g>
		<g id="shape45-61" v:mID="45" v:groupContext="shape" transform="translate(1318.87,405.906) rotate(90)">
			<title>Sheet.45</title>
			<path d="M0 792 L42.75 792" class="st3"/>
		</g>
		<g id="shape46-64" v:mID="46" v:groupContext="shape" transform="translate(538.875,-449.345)">
			<title>Sheet.46</title>
			<desc>T1 (Leafs)</desc>
			<v:textBlock v:margins="rect(4,4,4,4)"/>
			<v:textRect cx="33.1875" cy="782" width="66.38" height="20"/>
			<rect x="0" y="772" width="66.375" height="20" class="st4"/>
			<text x="9.67" y="785.6" class="st2" v:langID="1033"><v:paragraph v:horizAlign="1"/><v:tabList/>T1 (Leafs)</text>		</g>
		<g id="shape62-67" v:mID="62" v:groupContext="shape" transform="translate(9,-317.25)">
			<title>Sheet.62</title>
			<desc>PTF (28 ports)</desc>
			<v:textBlock v:margins="rect(4,4,4,4)"/>
			<v:textRect cx="266.625" cy="778.5" width="533.25" height="27"/>
			<rect x="0" y="765" width="533.25" height="27" class="st1"/>
			<text x="232.65" y="782.1" class="st2" v:langID="1033"><v:paragraph v:horizAlign="1"/><v:tabList/>PTF (28 ports)</text>		</g>
		<g id="shape63-70" v:mID="63" v:groupContext="shape" transform="translate(830.25,342.905) rotate(90)">
			<title>Sheet.63</title>
			<path d="M0 792 L42.75 792" class="st3"/>
		</g>
		<g id="shape64-73" v:mID="64" v:groupContext="shape" transform="translate(976.5,343.811) rotate(90)">
			<title>Sheet.64</title>
			<path d="M0 792 L41.84 792" class="st3"/>
		</g>
		<g id="shape65-76" v:mID="65" v:groupContext="shape" transform="translate(1161,343.811) rotate(90)">
			<title>Sheet.65</title>
			<path d="M0 792 L41.84 792" class="st3"/>
		</g>
		<g id="shape66-79" v:mID="66" v:groupContext="shape" transform="translate(1300.5,343.811) rotate(90)">
			<title>Sheet.66</title>
			<path d="M0 792 L41.84 792" class="st3"/>
		</g>
		<g id="shape67-82" v:mID="67" v:groupContext="shape" transform="translate(533.25,-319.75)">
			<title>Sheet.67</title>
			<desc>Servers</desc>
			<v:textBlock v:margins="rect(4,4,4,4)"/>
			<v:textRect cx="33.1875" cy="782" width="66.38" height="20"/>
			<rect x="0" y="772" width="66.375" height="20" class="st4"/>
			<text x="15.22" y="785.6" class="st2" v:langID="1033"><v:paragraph v:horizAlign="1"/><v:tabList/>Servers</text>		</g>
	</g>
</svg>
