<?xml version="1.0" encoding="UTF-8" standalone="no"?>
<!DOCTYPE svg PUBLIC "-//W3C//DTD SVG 1.1//EN" "http://www.w3.org/Graphics/SVG/1.1/DTD/svg11.dtd">
<!-- Generated by Microsoft Visio, SVG Export testbed-t1.svg Page-1 -->
<svg xmlns="http://www.w3.org/2000/svg" xmlns:xlink="http://www.w3.org/1999/xlink" xmlns:ev="http://www.w3.org/2001/xml-events"
		xmlns:v="http://schemas.microsoft.com/visio/2003/SVGExtensions/" width="16.5in" height="11in" viewBox="0 0 1188 792"
		xml:space="preserve" color-interpolation-filters="sRGB" class="st5">
	<v:documentProperties v:langID="1033" v:viewMarkup="false">
		<v:userDefs>
			<v:ud v:nameU="msvNoAutoConnect" v:val="VT0(1):26"/>
		</v:userDefs>
	</v:documentProperties>

	<style type="text/css">
	<![CDATA[
		.st1 {fill:#ffffff;stroke:#000000;stroke-linecap:round;stroke-linejoin:round;stroke-width:0.75}
		.st2 {fill:#000000;font-family:Calibri;font-size:1.00001em}
		.st3 {stroke:#000000;stroke-linecap:round;stroke-linejoin:round;stroke-width:0.75}
		.st4 {fill:none;stroke:none;stroke-linecap:round;stroke-linejoin:round;stroke-width:0.75}
		.st5 {fill:none;fill-rule:evenodd;font-size:12px;overflow:visible;stroke-linecap:square;stroke-miterlimit:3}
	]]>
	</style>

	<g v:mID="0" v:index="1" v:groupContext="foregroundPage">
		<title>Page-1</title>
		<v:pageProperties v:drawingScale="1" v:pageScale="1" v:drawingUnits="19" v:shadowOffsetX="9" v:shadowOffsetY="-9"/>
		<g id="shape1-1" v:mID="1" v:groupContext="shape" transform="translate(18,-625.5)">
			<title>Sheet.1</title>
			<desc>DUT</desc>
			<v:textBlock v:margins="rect(4,4,4,4)"/>
			<v:textRect cx="266.625" cy="781.875" width="533.26" height="20.25"/>
			<rect x="0" y="771.75" width="533.25" height="20.25" class="st1"/>
			<text x="256.16" y="785.48" class="st2" v:langID="1033"><v:paragraph v:horizAlign="1"/><v:tabList/>DUT</text>		</g>
		<g id="shape2-4" v:mID="2" v:groupContext="shape" transform="translate(18,-688.5)">
			<title>Sheet.2</title>
			<desc>VM</desc>
			<v:textBlock v:margins="rect(4,4,4,4)"/>
			<v:textRect cx="13.5" cy="781.875" width="27.01" height="20.25"/>
			<rect x="0" y="771.75" width="27" height="20.25" class="st1"/>
			<text x="4.97" y="785.48" class="st2" v:langID="1033"><v:paragraph v:horizAlign="1"/><v:tabList/>VM</text>		</g>
		<g id="shape3-7" v:mID="3" v:groupContext="shape" transform="translate(51.75,-688.5)">
			<title>Sheet.3</title>
			<desc>VM</desc>
			<v:textBlock v:margins="rect(4,4,4,4)"/>
			<v:textRect cx="13.5" cy="781.875" width="27.01" height="20.25"/>
			<rect x="0" y="771.75" width="27" height="20.25" class="st1"/>
			<text x="4.97" y="785.48" class="st2" v:langID="1033"><v:paragraph v:horizAlign="1"/><v:tabList/>VM</text>		</g>
		<g id="shape4-10" v:mID="4" v:groupContext="shape" transform="translate(85.5,-688.5)">
			<title>Sheet.4</title>
			<desc>VM</desc>
			<v:textBlock v:margins="rect(4,4,4,4)"/>
			<v:textRect cx="13.5" cy="781.875" width="27.01" height="20.25"/>
			<rect x="0" y="771.75" width="27" height="20.25" class="st1"/>
			<text x="4.97" y="785.48" class="st2" v:langID="1033"><v:paragraph v:horizAlign="1"/><v:tabList/>VM</text>		</g>
		<g id="shape5-13" v:mID="5" v:groupContext="shape" transform="translate(119.25,-688.5)">
			<title>Sheet.5</title>
			<desc>VM</desc>
			<v:textBlock v:margins="rect(4,4,4,4)"/>
			<v:textRect cx="13.5" cy="781.875" width="27.01" height="20.25"/>
			<rect x="0" y="771.75" width="27" height="20.25" class="st1"/>
			<text x="4.97" y="785.48" class="st2" v:langID="1033"><v:paragraph v:horizAlign="1"/><v:tabList/>VM</text>		</g>
		<g id="shape6-16" v:mID="6" v:groupContext="shape" transform="translate(153,-688.5)">
			<title>Sheet.6</title>
			<desc>VM</desc>
			<v:textBlock v:margins="rect(4,4,4,4)"/>
			<v:textRect cx="13.5" cy="781.875" width="27.01" height="20.25"/>
			<rect x="0" y="771.75" width="27" height="20.25" class="st1"/>
			<text x="4.97" y="785.48" class="st2" v:langID="1033"><v:paragraph v:horizAlign="1"/><v:tabList/>VM</text>		</g>
		<g id="shape7-19" v:mID="7" v:groupContext="shape" transform="translate(186.75,-688.5)">
			<title>Sheet.7</title>
			<desc>VM</desc>
			<v:textBlock v:margins="rect(4,4,4,4)"/>
			<v:textRect cx="13.5" cy="781.875" width="27.01" height="20.25"/>
			<rect x="0" y="771.75" width="27" height="20.25" class="st1"/>
			<text x="4.97" y="785.48" class="st2" v:langID="1033"><v:paragraph v:horizAlign="1"/><v:tabList/>VM</text>		</g>
		<g id="shape8-22" v:mID="8" v:groupContext="shape" transform="translate(220.5,-688.5)">
			<title>Sheet.8</title>
			<desc>VM</desc>
			<v:textBlock v:margins="rect(4,4,4,4)"/>
			<v:textRect cx="13.5" cy="781.875" width="27.01" height="20.25"/>
			<rect x="0" y="771.75" width="27" height="20.25" class="st1"/>
			<text x="4.97" y="785.48" class="st2" v:langID="1033"><v:paragraph v:horizAlign="1"/><v:tabList/>VM</text>		</g>
		<g id="shape9-25" v:mID="9" v:groupContext="shape" transform="translate(254.25,-688.5)">
			<title>Sheet.9</title>
			<desc>VM</desc>
			<v:textBlock v:margins="rect(4,4,4,4)"/>
			<v:textRect cx="13.5" cy="781.875" width="27.01" height="20.25"/>
			<rect x="0" y="771.75" width="27" height="20.25" class="st1"/>
			<text x="4.97" y="785.48" class="st2" v:langID="1033"><v:paragraph v:horizAlign="1"/><v:tabList/>VM</text>		</g>
		<g id="shape10-28" v:mID="10" v:groupContext="shape" transform="translate(288,-688.5)">
			<title>Sheet.10</title>
			<desc>VM</desc>
			<v:textBlock v:margins="rect(4,4,4,4)"/>
			<v:textRect cx="13.5" cy="781.875" width="27.01" height="20.25"/>
			<rect x="0" y="771.75" width="27" height="20.25" class="st1"/>
			<text x="4.97" y="785.48" class="st2" v:langID="1033"><v:paragraph v:horizAlign="1"/><v:tabList/>VM</text>		</g>
		<g id="shape11-31" v:mID="11" v:groupContext="shape" transform="translate(321.75,-688.5)">
			<title>Sheet.11</title>
			<desc>VM</desc>
			<v:textBlock v:margins="rect(4,4,4,4)"/>
			<v:textRect cx="13.5" cy="781.875" width="27.01" height="20.25"/>
			<rect x="0" y="771.75" width="27" height="20.25" class="st1"/>
			<text x="4.97" y="785.48" class="st2" v:langID="1033"><v:paragraph v:horizAlign="1"/><v:tabList/>VM</text>		</g>
		<g id="shape12-34" v:mID="12" v:groupContext="shape" transform="translate(355.5,-688.5)">
			<title>Sheet.12</title>
			<desc>VM</desc>
			<v:textBlock v:margins="rect(4,4,4,4)"/>
			<v:textRect cx="13.5" cy="781.875" width="27.01" height="20.25"/>
			<rect x="0" y="771.75" width="27" height="20.25" class="st1"/>
			<text x="4.97" y="785.48" class="st2" v:langID="1033"><v:paragraph v:horizAlign="1"/><v:tabList/>VM</text>		</g>
		<g id="shape13-37" v:mID="13" v:groupContext="shape" transform="translate(389.25,-688.5)">
			<title>Sheet.13</title>
			<desc>VM</desc>
			<v:textBlock v:margins="rect(4,4,4,4)"/>
			<v:textRect cx="13.5" cy="781.875" width="27.01" height="20.25"/>
			<rect x="0" y="771.75" width="27" height="20.25" class="st1"/>
			<text x="4.97" y="785.48" class="st2" v:langID="1033"><v:paragraph v:horizAlign="1"/><v:tabList/>VM</text>		</g>
		<g id="shape14-40" v:mID="14" v:groupContext="shape" transform="translate(423,-688.5)">
			<title>Sheet.14</title>
			<desc>VM</desc>
			<v:textBlock v:margins="rect(4,4,4,4)"/>
			<v:textRect cx="13.5" cy="781.875" width="27.01" height="20.25"/>
			<rect x="0" y="771.75" width="27" height="20.25" class="st1"/>
			<text x="4.97" y="785.48" class="st2" v:langID="1033"><v:paragraph v:horizAlign="1"/><v:tabList/>VM</text>		</g>
		<g id="shape15-43" v:mID="15" v:groupContext="shape" transform="translate(456.75,-688.5)">
			<title>Sheet.15</title>
			<desc>VM</desc>
			<v:textBlock v:margins="rect(4,4,4,4)"/>
			<v:textRect cx="13.5" cy="781.875" width="27.01" height="20.25"/>
			<rect x="0" y="771.75" width="27" height="20.25" class="st1"/>
			<text x="4.97" y="785.48" class="st2" v:langID="1033"><v:paragraph v:horizAlign="1"/><v:tabList/>VM</text>		</g>
		<g id="shape16-46" v:mID="16" v:groupContext="shape" transform="translate(490.5,-688.5)">
			<title>Sheet.16</title>
			<desc>VM</desc>
			<v:textBlock v:margins="rect(4,4,4,4)"/>
			<v:textRect cx="13.5" cy="781.875" width="27.01" height="20.25"/>
			<rect x="0" y="771.75" width="27" height="20.25" class="st1"/>
			<text x="4.97" y="785.48" class="st2" v:langID="1033"><v:paragraph v:horizAlign="1"/><v:tabList/>VM</text>		</g>
		<g id="shape17-49" v:mID="17" v:groupContext="shape" transform="translate(524.25,-688.5)">
			<title>Sheet.17</title>
			<desc>VM</desc>
			<v:textBlock v:margins="rect(4,4,4,4)"/>
			<v:textRect cx="13.5" cy="781.875" width="27.01" height="20.25"/>
			<rect x="0" y="771.75" width="27" height="20.25" class="st1"/>
			<text x="4.97" y="785.48" class="st2" v:langID="1033"><v:paragraph v:horizAlign="1"/><v:tabList/>VM</text>		</g>
		<g id="shape18-52" v:mID="18" v:groupContext="shape" transform="translate(18,-562.5)">
			<title>Sheet.18</title>
			<desc>VM</desc>
			<v:textBlock v:margins="rect(4,4,4,4)"/>
			<v:textRect cx="13.5" cy="781.875" width="27.01" height="20.25"/>
			<rect x="0" y="771.75" width="27" height="20.25" class="st1"/>
			<text x="4.97" y="785.48" class="st2" v:langID="1033"><v:paragraph v:horizAlign="1"/><v:tabList/>VM</text>		</g>
		<g id="shape19-55" v:mID="19" v:groupContext="shape" transform="translate(51.75,-562.5)">
			<title>Sheet.19</title>
			<desc>VM</desc>
			<v:textBlock v:margins="rect(4,4,4,4)"/>
			<v:textRect cx="13.5" cy="781.875" width="27.01" height="20.25"/>
			<rect x="0" y="771.75" width="27" height="20.25" class="st1"/>
			<text x="4.97" y="785.48" class="st2" v:langID="1033"><v:paragraph v:horizAlign="1"/><v:tabList/>VM</text>		</g>
		<g id="shape20-58" v:mID="20" v:groupContext="shape" transform="translate(85.5,-562.5)">
			<title>Sheet.20</title>
			<desc>VM</desc>
			<v:textBlock v:margins="rect(4,4,4,4)"/>
			<v:textRect cx="13.5" cy="781.875" width="27.01" height="20.25"/>
			<rect x="0" y="771.75" width="27" height="20.25" class="st1"/>
			<text x="4.97" y="785.48" class="st2" v:langID="1033"><v:paragraph v:horizAlign="1"/><v:tabList/>VM</text>		</g>
		<g id="shape21-61" v:mID="21" v:groupContext="shape" transform="translate(119.25,-562.5)">
			<title>Sheet.21</title>
			<desc>VM</desc>
			<v:textBlock v:margins="rect(4,4,4,4)"/>
			<v:textRect cx="13.5" cy="781.875" width="27.01" height="20.25"/>
			<rect x="0" y="771.75" width="27" height="20.25" class="st1"/>
			<text x="4.97" y="785.48" class="st2" v:langID="1033"><v:paragraph v:horizAlign="1"/><v:tabList/>VM</text>		</g>
		<g id="shape22-64" v:mID="22" v:groupContext="shape" transform="translate(153,-562.5)">
			<title>Sheet.22</title>
			<desc>VM</desc>
			<v:textBlock v:margins="rect(4,4,4,4)"/>
			<v:textRect cx="13.5" cy="781.875" width="27.01" height="20.25"/>
			<rect x="0" y="771.75" width="27" height="20.25" class="st1"/>
			<text x="4.97" y="785.48" class="st2" v:langID="1033"><v:paragraph v:horizAlign="1"/><v:tabList/>VM</text>		</g>
		<g id="shape23-67" v:mID="23" v:groupContext="shape" transform="translate(186.75,-562.5)">
			<title>Sheet.23</title>
			<desc>VM</desc>
			<v:textBlock v:margins="rect(4,4,4,4)"/>
			<v:textRect cx="13.5" cy="781.875" width="27.01" height="20.25"/>
			<rect x="0" y="771.75" width="27" height="20.25" class="st1"/>
			<text x="4.97" y="785.48" class="st2" v:langID="1033"><v:paragraph v:horizAlign="1"/><v:tabList/>VM</text>		</g>
		<g id="shape24-70" v:mID="24" v:groupContext="shape" transform="translate(220.5,-562.5)">
			<title>Sheet.24</title>
			<desc>VM</desc>
			<v:textBlock v:margins="rect(4,4,4,4)"/>
			<v:textRect cx="13.5" cy="781.875" width="27.01" height="20.25"/>
			<rect x="0" y="771.75" width="27" height="20.25" class="st1"/>
			<text x="4.97" y="785.48" class="st2" v:langID="1033"><v:paragraph v:horizAlign="1"/><v:tabList/>VM</text>		</g>
		<g id="shape25-73" v:mID="25" v:groupContext="shape" transform="translate(254.25,-562.5)">
			<title>Sheet.25</title>
			<desc>VM</desc>
			<v:textBlock v:margins="rect(4,4,4,4)"/>
			<v:textRect cx="13.5" cy="781.875" width="27.01" height="20.25"/>
			<rect x="0" y="771.75" width="27" height="20.25" class="st1"/>
			<text x="4.97" y="785.48" class="st2" v:langID="1033"><v:paragraph v:horizAlign="1"/><v:tabList/>VM</text>		</g>
		<g id="shape26-76" v:mID="26" v:groupContext="shape" transform="translate(288,-562.5)">
			<title>Sheet.26</title>
			<desc>VM</desc>
			<v:textBlock v:margins="rect(4,4,4,4)"/>
			<v:textRect cx="13.5" cy="781.875" width="27.01" height="20.25"/>
			<rect x="0" y="771.75" width="27" height="20.25" class="st1"/>
			<text x="4.97" y="785.48" class="st2" v:langID="1033"><v:paragraph v:horizAlign="1"/><v:tabList/>VM</text>		</g>
		<g id="shape27-79" v:mID="27" v:groupContext="shape" transform="translate(321.75,-562.5)">
			<title>Sheet.27</title>
			<desc>VM</desc>
			<v:textBlock v:margins="rect(4,4,4,4)"/>
			<v:textRect cx="13.5" cy="781.875" width="27.01" height="20.25"/>
			<rect x="0" y="771.75" width="27" height="20.25" class="st1"/>
			<text x="4.97" y="785.48" class="st2" v:langID="1033"><v:paragraph v:horizAlign="1"/><v:tabList/>VM</text>		</g>
		<g id="shape28-82" v:mID="28" v:groupContext="shape" transform="translate(355.5,-562.5)">
			<title>Sheet.28</title>
			<desc>VM</desc>
			<v:textBlock v:margins="rect(4,4,4,4)"/>
			<v:textRect cx="13.5" cy="781.875" width="27.01" height="20.25"/>
			<rect x="0" y="771.75" width="27" height="20.25" class="st1"/>
			<text x="4.97" y="785.48" class="st2" v:langID="1033"><v:paragraph v:horizAlign="1"/><v:tabList/>VM</text>		</g>
		<g id="shape29-85" v:mID="29" v:groupContext="shape" transform="translate(389.25,-562.5)">
			<title>Sheet.29</title>
			<desc>VM</desc>
			<v:textBlock v:margins="rect(4,4,4,4)"/>
			<v:textRect cx="13.5" cy="781.875" width="27.01" height="20.25"/>
			<rect x="0" y="771.75" width="27" height="20.25" class="st1"/>
			<text x="4.97" y="785.48" class="st2" v:langID="1033"><v:paragraph v:horizAlign="1"/><v:tabList/>VM</text>		</g>
		<g id="shape30-88" v:mID="30" v:groupContext="shape" transform="translate(423,-562.5)">
			<title>Sheet.30</title>
			<desc>VM</desc>
			<v:textBlock v:margins="rect(4,4,4,4)"/>
			<v:textRect cx="13.5" cy="781.875" width="27.01" height="20.25"/>
			<rect x="0" y="771.75" width="27" height="20.25" class="st1"/>
			<text x="4.97" y="785.48" class="st2" v:langID="1033"><v:paragraph v:horizAlign="1"/><v:tabList/>VM</text>		</g>
		<g id="shape31-91" v:mID="31" v:groupContext="shape" transform="translate(456.75,-562.5)">
			<title>Sheet.31</title>
			<desc>VM</desc>
			<v:textBlock v:margins="rect(4,4,4,4)"/>
			<v:textRect cx="13.5" cy="781.875" width="27.01" height="20.25"/>
			<rect x="0" y="771.75" width="27" height="20.25" class="st1"/>
			<text x="4.97" y="785.48" class="st2" v:langID="1033"><v:paragraph v:horizAlign="1"/><v:tabList/>VM</text>		</g>
		<g id="shape32-94" v:mID="32" v:groupContext="shape" transform="translate(490.5,-562.5)">
			<title>Sheet.32</title>
			<desc>VM</desc>
			<v:textBlock v:margins="rect(4,4,4,4)"/>
			<v:textRect cx="13.5" cy="781.875" width="27.01" height="20.25"/>
			<rect x="0" y="771.75" width="27" height="20.25" class="st1"/>
			<text x="4.97" y="785.48" class="st2" v:langID="1033"><v:paragraph v:horizAlign="1"/><v:tabList/>VM</text>		</g>
		<g id="shape33-97" v:mID="33" v:groupContext="shape" transform="translate(524.25,-562.5)">
			<title>Sheet.33</title>
			<desc>VM</desc>
			<v:textBlock v:margins="rect(4,4,4,4)"/>
			<v:textRect cx="13.5" cy="781.875" width="27.01" height="20.25"/>
			<rect x="0" y="771.75" width="27" height="20.25" class="st1"/>
			<text x="4.97" y="785.48" class="st2" v:langID="1033"><v:paragraph v:horizAlign="1"/><v:tabList/>VM</text>		</g>
		<g id="shape34-100" v:mID="34" v:groupContext="shape" transform="translate(823.5,103.5) rotate(90)">
			<title>Sheet.34</title>
			<path d="M0 792 L42.75 792" class="st3"/>
		</g>
		<g id="shape35-103" v:mID="35" v:groupContext="shape" transform="translate(857.625,103.5) rotate(90)">
			<title>Sheet.35</title>
			<path d="M0 792 L42.75 792" class="st3"/>
		</g>
		<g id="shape36-106" v:mID="36" v:groupContext="shape" transform="translate(891,103.5) rotate(90)">
			<title>Sheet.36</title>
			<path d="M0 792 L42.75 792" class="st3"/>
		</g>
		<g id="shape37-109" v:mID="37" v:groupContext="shape" transform="translate(925.125,103.5) rotate(90)">
			<title>Sheet.37</title>
			<path d="M0 792 L42.75 792" class="st3"/>
		</g>
		<g id="shape38-112" v:mID="38" v:groupContext="shape" transform="translate(958.5,103.5) rotate(90)">
			<title>Sheet.38</title>
			<path d="M0 792 L42.75 792" class="st3"/>
		</g>
		<g id="shape39-115" v:mID="39" v:groupContext="shape" transform="translate(992.625,103.5) rotate(90)">
			<title>Sheet.39</title>
			<path d="M0 792 L42.75 792" class="st3"/>
		</g>
		<g id="shape40-118" v:mID="40" v:groupContext="shape" transform="translate(1026,104.063) rotate(90)">
			<title>Sheet.40</title>
			<path d="M0 792 L42.75 792" class="st3"/>
		</g>
		<g id="shape41-121" v:mID="41" v:groupContext="shape" transform="translate(1060.12,104.063) rotate(90)">
			<title>Sheet.41</title>
			<path d="M0 792 L42.75 792" class="st3"/>
		</g>
		<g id="shape42-124" v:mID="42" v:groupContext="shape" transform="translate(1093.5,103.5) rotate(90)">
			<title>Sheet.42</title>
			<path d="M0 792 L42.75 792" class="st3"/>
		</g>
		<g id="shape43-127" v:mID="43" v:groupContext="shape" transform="translate(1127.62,103.5) rotate(90)">
			<title>Sheet.43</title>
			<path d="M0 792 L42.75 792" class="st3"/>
		</g>
		<g id="shape44-130" v:mID="44" v:groupContext="shape" transform="translate(1161,103.5) rotate(90)">
			<title>Sheet.44</title>
			<path d="M0 792 L42.75 792" class="st3"/>
		</g>
		<g id="shape45-133" v:mID="45" v:groupContext="shape" transform="translate(1195.12,103.5) rotate(90)">
			<title>Sheet.45</title>
			<path d="M0 792 L42.75 792" class="st3"/>
		</g>
		<g id="shape46-136" v:mID="46" v:groupContext="shape" transform="translate(1228.5,103.5) rotate(90)">
			<title>Sheet.46</title>
			<path d="M0 792 L42.75 792" class="st3"/>
		</g>
		<g id="shape47-139" v:mID="47" v:groupContext="shape" transform="translate(1262.62,103.5) rotate(90)">
			<title>Sheet.47</title>
			<path d="M0 792 L42.75 792" class="st3"/>
		</g>
		<g id="shape48-142" v:mID="48" v:groupContext="shape" transform="translate(1296,103.5) rotate(90)">
			<title>Sheet.48</title>
			<path d="M0 792 L42.75 792" class="st3"/>
		</g>
		<g id="shape49-145" v:mID="49" v:groupContext="shape" transform="translate(1330.12,103.5) rotate(90)">
			<title>Sheet.49</title>
			<path d="M0 792 L42.75 792" class="st3"/>
		</g>
		<g id="shape50-148" v:mID="50" v:groupContext="shape" transform="translate(823.5,166.5) rotate(90)">
			<title>Sheet.50</title>
			<path d="M0 792 L42.75 792" class="st3"/>
		</g>
		<g id="shape51-151" v:mID="51" v:groupContext="shape" transform="translate(857.625,166.5) rotate(90)">
			<title>Sheet.51</title>
			<path d="M0 792 L42.75 792" class="st3"/>
		</g>
		<g id="shape52-154" v:mID="52" v:groupContext="shape" transform="translate(891,166.5) rotate(90)">
			<title>Sheet.52</title>
			<path d="M0 792 L42.75 792" class="st3"/>
		</g>
		<g id="shape53-157" v:mID="53" v:groupContext="shape" transform="translate(925.125,166.5) rotate(90)">
			<title>Sheet.53</title>
			<path d="M0 792 L42.75 792" class="st3"/>
		</g>
		<g id="shape54-160" v:mID="54" v:groupContext="shape" transform="translate(958.5,167.062) rotate(90)">
			<title>Sheet.54</title>
			<path d="M0 792 L42.75 792" class="st3"/>
		</g>
		<g id="shape55-163" v:mID="55" v:groupContext="shape" transform="translate(992.625,167.063) rotate(90)">
			<title>Sheet.55</title>
			<path d="M0 792 L42.75 792" class="st3"/>
		</g>
		<g id="shape56-166" v:mID="56" v:groupContext="shape" transform="translate(1026,167.062) rotate(90)">
			<title>Sheet.56</title>
			<path d="M0 792 L42.75 792" class="st3"/>
		</g>
		<g id="shape57-169" v:mID="57" v:groupContext="shape" transform="translate(1060.12,167.063) rotate(90)">
			<title>Sheet.57</title>
			<path d="M0 792 L42.75 792" class="st3"/>
		</g>
		<g id="shape58-172" v:mID="58" v:groupContext="shape" transform="translate(1093.5,166.5) rotate(90)">
			<title>Sheet.58</title>
			<path d="M0 792 L42.75 792" class="st3"/>
		</g>
		<g id="shape59-175" v:mID="59" v:groupContext="shape" transform="translate(1127.62,166.5) rotate(90)">
			<title>Sheet.59</title>
			<path d="M0 792 L42.75 792" class="st3"/>
		</g>
		<g id="shape60-178" v:mID="60" v:groupContext="shape" transform="translate(1161,166.5) rotate(90)">
			<title>Sheet.60</title>
			<path d="M0 792 L42.75 792" class="st3"/>
		</g>
		<g id="shape61-181" v:mID="61" v:groupContext="shape" transform="translate(1195.12,166.5) rotate(90)">
			<title>Sheet.61</title>
			<path d="M0 792 L42.75 792" class="st3"/>
		</g>
		<g id="shape62-184" v:mID="62" v:groupContext="shape" transform="translate(1228.5,167.063) rotate(90)">
			<title>Sheet.62</title>
			<path d="M0 792 L42.75 792" class="st3"/>
		</g>
		<g id="shape63-187" v:mID="63" v:groupContext="shape" transform="translate(1262.62,167.625) rotate(90)">
			<title>Sheet.63</title>
			<path d="M0 792 L42.75 792" class="st3"/>
		</g>
		<g id="shape64-190" v:mID="64" v:groupContext="shape" transform="translate(1296,166.5) rotate(90)">
			<title>Sheet.64</title>
			<path d="M0 792 L42.75 792" class="st3"/>
		</g>
		<g id="shape65-193" v:mID="65" v:groupContext="shape" transform="translate(1330.12,166.5) rotate(90)">
			<title>Sheet.65</title>
			<path d="M0 792 L42.75 792" class="st3"/>
		</g>
		<g id="shape66-196" v:mID="66" v:groupContext="shape" transform="translate(550.125,-688.75)">
			<title>Sheet.66</title>
			<desc>T2 (Spines)</desc>
			<v:textBlock v:margins="rect(4,4,4,4)"/>
			<v:textRect cx="33.1875" cy="782" width="66.38" height="20"/>
			<rect x="0" y="772" width="66.375" height="20" class="st4"/>
			<text x="6.46" y="785.6" class="st2" v:langID="1033"><v:paragraph v:horizAlign="1"/><v:tabList/>T2 (Spines)</text>		</g>
		<g id="shape67-199" v:mID="67" v:groupContext="shape" transform="translate(551.75,-562.5)">
			<title>Sheet.67</title>
			<desc>T0 (TORs)</desc>
			<v:textBlock v:margins="rect(4,4,4,4)"/>
			<v:textRect cx="28.4375" cy="782" width="56.88" height="20"/>
			<rect x="0" y="772" width="56.875" height="20" class="st4"/>
			<text x="4.98" y="785.6" class="st2" v:langID="1033"><v:paragraph v:horizAlign="1"/><v:tabList/>T0 (TORs)</text>		</g>
	</g>
</svg>
