<?xml version="1.0" encoding="UTF-8" standalone="no"?>
<!DOCTYPE svg PUBLIC "-//W3C//DTD SVG 1.1//EN" "http://www.w3.org/Graphics/SVG/1.1/DTD/svg11.dtd">
<!-- Generated by Microsoft Visio, SVG Export testbed-server.svg Page-1 -->
<svg xmlns="http://www.w3.org/2000/svg" xmlns:xlink="http://www.w3.org/1999/xlink" xmlns:ev="http://www.w3.org/2001/xml-events"
		xmlns:v="http://schemas.microsoft.com/visio/2003/SVGExtensions/" width="8.5in" height="11in" viewBox="0 0 612 792"
		xml:space="preserve" color-interpolation-filters="sRGB" class="st9">
	<v:documentProperties v:langID="1033" v:viewMarkup="false">
		<v:userDefs>
			<v:ud v:nameU="msvNoAutoConnect" v:val="VT0(1):26"/>
		</v:userDefs>
	</v:documentProperties>

	<style type="text/css">
	<![CDATA[
		.st1 {fill:#ffffff;stroke:#000000;stroke-linecap:round;stroke-linejoin:round;stroke-width:0.75}
		.st2 {fill:#000000;font-family:Calibri;font-size:0.416656em}
		.st3 {fill:#000000;font-family:Calibri;font-size:1.00001em}
		.st4 {font-size:1em}
		.st5 {fill:#ffffff;stroke:#000000;stroke-dasharray:0.75,1.5;stroke-linecap:round;stroke-linejoin:round;stroke-width:0.75}
		.st6 {fill:none;stroke:none;stroke-linecap:round;stroke-linejoin:round;stroke-width:0.75}
		.st7 {stroke:#000000;stroke-linecap:round;stroke-linejoin:round;stroke-width:4.5}
		.st8 {stroke:#000000;stroke-linecap:round;stroke-linejoin:round;stroke-width:0.75}
		.st9 {fill:none;fill-rule:evenodd;font-size:12px;overflow:visible;stroke-linecap:square;stroke-miterlimit:3}
	]]>
	</style>

	<g v:mID="0" v:index="1" v:groupContext="foregroundPage">
		<title>Page-1</title>
		<v:pageProperties v:drawingScale="1" v:pageScale="1" v:drawingUnits="19" v:shadowOffsetX="9" v:shadowOffsetY="-9"/>
		<g id="group168-1" transform="translate(23.625,-615.149)" v:mID="168" v:groupContext="group">
			<title>Sheet.168</title>
			<g id="shape1-2" v:mID="1" v:groupContext="shape" transform="translate(0,30.1491)">
				<title>Sheet.1</title>
				<rect x="0" y="606.201" width="188.494" height="185.799" class="st1"/>
			</g>
			<g id="shape3-4" v:mID="3" v:groupContext="shape" transform="translate(15.7078,-124.234)">
				<title>Sheet.3</title>
				<desc>VM</desc>
				<v:textBlock v:margins="rect(4,4,4,4)"/>
				<v:textRect cx="9.63888" cy="783.432" width="19.28" height="17.1358"/>
				<rect x="0" y="774.864" width="19.2778" height="17.1358" class="st1"/>
				<text x="6.08" y="784.93" class="st2" v:langID="1033"><v:paragraph v:horizAlign="1"/><v:tabList/>VM</text>			</g>
			<g id="shape5-7" v:mID="5" v:groupContext="shape" transform="translate(40.3405,-124.234)">
				<title>Sheet.5</title>
				<desc>VM</desc>
				<v:textBlock v:margins="rect(4,4,4,4)"/>
				<v:textRect cx="9.63888" cy="783.432" width="19.28" height="17.1358"/>
				<rect x="0" y="774.864" width="19.2778" height="17.1358" class="st1"/>
				<text x="6.08" y="784.93" class="st2" v:langID="1033"><v:paragraph v:horizAlign="1"/><v:tabList/>VM</text>			</g>
			<g id="shape6-10" v:mID="6" v:groupContext="shape" transform="translate(64.9732,-124.234)">
				<title>Sheet.6</title>
				<desc>VM</desc>
				<v:textBlock v:margins="rect(4,4,4,4)"/>
				<v:textRect cx="9.63888" cy="783.432" width="19.28" height="17.1358"/>
				<rect x="0" y="774.864" width="19.2778" height="17.1358" class="st1"/>
				<text x="6.08" y="784.93" class="st2" v:langID="1033"><v:paragraph v:horizAlign="1"/><v:tabList/>VM</text>			</g>
			<g id="shape7-13" v:mID="7" v:groupContext="shape" transform="translate(89.6059,-124.234)">
				<title>Sheet.7</title>
				<desc>VM</desc>
				<v:textBlock v:margins="rect(4,4,4,4)"/>
				<v:textRect cx="9.63888" cy="783.432" width="19.28" height="17.1358"/>
				<rect x="0" y="774.864" width="19.2778" height="17.1358" class="st1"/>
				<text x="6.08" y="784.93" class="st2" v:langID="1033"><v:paragraph v:horizAlign="1"/><v:tabList/>VM</text>			</g>
			<g id="shape8-16" v:mID="8" v:groupContext="shape" transform="translate(15.7078,-101.387)">
				<title>Sheet.8</title>
				<desc>VM</desc>
				<v:textBlock v:margins="rect(4,4,4,4)"/>
				<v:textRect cx="9.63888" cy="783.432" width="19.28" height="17.1358"/>
				<rect x="0" y="774.864" width="19.2778" height="17.1358" class="st1"/>
				<text x="6.08" y="784.93" class="st2" v:langID="1033"><v:paragraph v:horizAlign="1"/><v:tabList/>VM</text>			</g>
			<g id="shape9-19" v:mID="9" v:groupContext="shape" transform="translate(40.3405,-101.387)">
				<title>Sheet.9</title>
				<desc>VM</desc>
				<v:textBlock v:margins="rect(4,4,4,4)"/>
				<v:textRect cx="9.63888" cy="783.432" width="19.28" height="17.1358"/>
				<rect x="0" y="774.864" width="19.2778" height="17.1358" class="st1"/>
				<text x="6.08" y="784.93" class="st2" v:langID="1033"><v:paragraph v:horizAlign="1"/><v:tabList/>VM</text>			</g>
			<g id="shape10-22" v:mID="10" v:groupContext="shape" transform="translate(64.9732,-101.387)">
				<title>Sheet.10</title>
				<desc>VM</desc>
				<v:textBlock v:margins="rect(4,4,4,4)"/>
				<v:textRect cx="9.63888" cy="783.432" width="19.28" height="17.1358"/>
				<rect x="0" y="774.864" width="19.2778" height="17.1358" class="st1"/>
				<text x="6.08" y="784.93" class="st2" v:langID="1033"><v:paragraph v:horizAlign="1"/><v:tabList/>VM</text>			</g>
			<g id="shape11-25" v:mID="11" v:groupContext="shape" transform="translate(89.6059,-101.387)">
				<title>Sheet.11</title>
				<desc>VM</desc>
				<v:textBlock v:margins="rect(4,4,4,4)"/>
				<v:textRect cx="9.63888" cy="783.432" width="19.28" height="17.1358"/>
				<rect x="0" y="774.864" width="19.2778" height="17.1358" class="st1"/>
				<text x="6.08" y="784.93" class="st2" v:langID="1033"><v:paragraph v:horizAlign="1"/><v:tabList/>VM</text>			</g>
			<g id="shape12-28" v:mID="12" v:groupContext="shape" transform="translate(15.7078,-78.539)">
				<title>Sheet.12</title>
				<desc>VM</desc>
				<v:textBlock v:margins="rect(4,4,4,4)"/>
				<v:textRect cx="9.63888" cy="783.432" width="19.28" height="17.1358"/>
				<rect x="0" y="774.864" width="19.2778" height="17.1358" class="st1"/>
				<text x="6.08" y="784.93" class="st2" v:langID="1033"><v:paragraph v:horizAlign="1"/><v:tabList/>VM</text>			</g>
			<g id="shape13-31" v:mID="13" v:groupContext="shape" transform="translate(40.3405,-78.539)">
				<title>Sheet.13</title>
				<desc>VM</desc>
				<v:textBlock v:margins="rect(4,4,4,4)"/>
				<v:textRect cx="9.63888" cy="783.432" width="19.28" height="17.1358"/>
				<rect x="0" y="774.864" width="19.2778" height="17.1358" class="st1"/>
				<text x="6.08" y="784.93" class="st2" v:langID="1033"><v:paragraph v:horizAlign="1"/><v:tabList/>VM</text>			</g>
			<g id="shape14-34" v:mID="14" v:groupContext="shape" transform="translate(64.9732,-78.539)">
				<title>Sheet.14</title>
				<desc>VM</desc>
				<v:textBlock v:margins="rect(4,4,4,4)"/>
				<v:textRect cx="9.63888" cy="783.432" width="19.28" height="17.1358"/>
				<rect x="0" y="774.864" width="19.2778" height="17.1358" class="st1"/>
				<text x="6.08" y="784.93" class="st2" v:langID="1033"><v:paragraph v:horizAlign="1"/><v:tabList/>VM</text>			</g>
			<g id="shape15-37" v:mID="15" v:groupContext="shape" transform="translate(89.6059,-78.539)">
				<title>Sheet.15</title>
				<desc>VM</desc>
				<v:textBlock v:margins="rect(4,4,4,4)"/>
				<v:textRect cx="9.63888" cy="783.432" width="19.28" height="17.1358"/>
				<rect x="0" y="774.864" width="19.2778" height="17.1358" class="st1"/>
				<text x="6.08" y="784.93" class="st2" v:langID="1033"><v:paragraph v:horizAlign="1"/><v:tabList/>VM</text>			</g>
			<g id="shape16-40" v:mID="16" v:groupContext="shape" transform="translate(15.7078,-55.6913)">
				<title>Sheet.16</title>
				<desc>VM</desc>
				<v:textBlock v:margins="rect(4,4,4,4)"/>
				<v:textRect cx="9.63888" cy="783.432" width="19.28" height="17.1358"/>
				<rect x="0" y="774.864" width="19.2778" height="17.1358" class="st1"/>
				<text x="6.08" y="784.93" class="st2" v:langID="1033"><v:paragraph v:horizAlign="1"/><v:tabList/>VM</text>			</g>
			<g id="shape17-43" v:mID="17" v:groupContext="shape" transform="translate(40.3405,-55.6913)">
				<title>Sheet.17</title>
				<desc>VM</desc>
				<v:textBlock v:margins="rect(4,4,4,4)"/>
				<v:textRect cx="9.63888" cy="783.432" width="19.28" height="17.1358"/>
				<rect x="0" y="774.864" width="19.2778" height="17.1358" class="st1"/>
				<text x="6.08" y="784.93" class="st2" v:langID="1033"><v:paragraph v:horizAlign="1"/><v:tabList/>VM</text>			</g>
			<g id="shape18-46" v:mID="18" v:groupContext="shape" transform="translate(64.9732,-55.6913)">
				<title>Sheet.18</title>
				<desc>VM</desc>
				<v:textBlock v:margins="rect(4,4,4,4)"/>
				<v:textRect cx="9.63888" cy="783.432" width="19.28" height="17.1358"/>
				<rect x="0" y="774.864" width="19.2778" height="17.1358" class="st1"/>
				<text x="6.08" y="784.93" class="st2" v:langID="1033"><v:paragraph v:horizAlign="1"/><v:tabList/>VM</text>			</g>
			<g id="shape19-49" v:mID="19" v:groupContext="shape" transform="translate(89.6059,-55.6913)">
				<title>Sheet.19</title>
				<desc>VM</desc>
				<v:textBlock v:margins="rect(4,4,4,4)"/>
				<v:textRect cx="9.63888" cy="783.432" width="19.28" height="17.1358"/>
				<rect x="0" y="774.864" width="19.2778" height="17.1358" class="st1"/>
				<text x="6.08" y="784.93" class="st2" v:langID="1033"><v:paragraph v:horizAlign="1"/><v:tabList/>VM</text>			</g>
			<g id="shape20-52" v:mID="20" v:groupContext="shape" transform="translate(122.092,-8.56789)">
				<title>Sheet.20</title>
				<desc>O V S</desc>
				<v:textBlock v:margins="rect(4,4,4,4)"/>
				<v:textRect cx="12.4948" cy="725.599" width="24.99" height="132.802"/>
				<rect x="0" y="659.198" width="24.9897" height="132.802" class="st1"/>
				<text x="8.52" y="714.8" class="st3" v:langID="1033"><v:paragraph v:horizAlign="1"/><v:tabList/>O<v:newlineChar/><tspan
							x="9.09" dy="1.2em" class="st4">V<v:newlineChar/></tspan><tspan x="9.74" dy="1.2em" class="st4">S</tspan></text>			</g>
			<g id="shape21-57" v:mID="21" v:groupContext="shape" transform="translate(156.364,-8.56789)">
				<title>Sheet.21</title>
				<desc>8 0 2 . 1 Q</desc>
				<v:textBlock v:margins="rect(4,4,4,4)"/>
				<v:textRect cx="12.4948" cy="725.599" width="24.99" height="132.802"/>
				<rect x="0" y="659.198" width="24.9897" height="132.802" class="st1"/>
				<text x="9.45" y="693.2" class="st3" v:langID="1033"><v:paragraph v:horizAlign="1"/><v:tabList/>8<v:newlineChar/><tspan
							x="9.45" dy="1.2em" class="st4">0<v:newlineChar/></tspan><tspan x="9.45" dy="1.2em" class="st4">2<v:newlineChar/></tspan><tspan
							x="10.98" dy="1.2em" class="st4">.<v:newlineChar/></tspan><tspan x="9.45" dy="1.2em" class="st4">1<v:newlineChar/></tspan><tspan
							x="8.46" dy="1.2em" class="st4">Q</tspan></text>			</g>
			<g id="shape22-65" v:mID="22" v:groupContext="shape" transform="translate(7.8539,-8.56789)">
				<title>Sheet.22</title>
				<desc>Docker</desc>
				<v:textBlock v:margins="rect(4,4,4,4)"/>
				<v:textRect cx="52.4783" cy="784.146" width="104.96" height="15.7078"/>
				<rect x="0" y="776.292" width="104.957" height="15.7078" class="st1"/>
				<text x="35.28" y="787.75" class="st3" v:langID="1033"><v:paragraph v:horizAlign="1"/><v:tabList/>Docker</text>			</g>
			<g id="shape23-68" v:mID="23" v:groupContext="shape" transform="translate(7.8539,-29.9876)">
				<title>Sheet.23</title>
				<desc>PTF</desc>
				<v:textBlock v:margins="rect(4,4,4,4)"/>
				<v:textRect cx="10.7099" cy="783.432" width="21.42" height="17.1358"/>
				<path d="M0 792 L21.42 792 L21.42 774.86 L0 774.86 L0 792 Z" class="st5"/>
				<text x="7.05" y="784.93" class="st2" v:langID="1033"><v:paragraph v:horizAlign="1"/><v:tabList/>PTF</text>			</g>
			<g id="shape24-71" v:mID="24" v:groupContext="shape" transform="translate(35.6995,-29.9876)">
				<title>Sheet.24</title>
				<desc>PTF</desc>
				<v:textBlock v:margins="rect(4,4,4,4)"/>
				<v:textRect cx="10.7099" cy="783.432" width="21.42" height="17.1358"/>
				<path d="M0 792 L21.42 792 L21.42 774.86 L0 774.86 L0 792 Z" class="st5"/>
				<text x="7.05" y="784.93" class="st2" v:langID="1033"><v:paragraph v:horizAlign="1"/><v:tabList/>PTF</text>			</g>
			<g id="shape25-74" v:mID="25" v:groupContext="shape" transform="translate(63.5452,-29.9876)">
				<title>Sheet.25</title>
				<desc>PTF</desc>
				<v:textBlock v:margins="rect(4,4,4,4)"/>
				<v:textRect cx="10.7099" cy="783.432" width="21.42" height="17.1358"/>
				<path d="M0 792 L21.42 792 L21.42 774.86 L0 774.86 L0 792 Z" class="st5"/>
				<text x="7.05" y="784.93" class="st2" v:langID="1033"><v:paragraph v:horizAlign="1"/><v:tabList/>PTF</text>			</g>
			<g id="shape26-77" v:mID="26" v:groupContext="shape" transform="translate(91.3908,-29.9876)">
				<title>Sheet.26</title>
				<desc>PTF</desc>
				<v:textBlock v:margins="rect(4,4,4,4)"/>
				<v:textRect cx="10.7099" cy="783.432" width="21.42" height="17.1358"/>
				<path d="M0 792 L21.42 792 L21.42 774.86 L0 774.86 L0 792 Z" class="st5"/>
				<text x="7.05" y="784.93" class="st2" v:langID="1033"><v:paragraph v:horizAlign="1"/><v:tabList/>PTF</text>			</g>
			<g id="shape27-80" v:mID="27" v:groupContext="shape" transform="translate(39.9835,-150.652)">
				<title>Sheet.27</title>
				<desc>Testbed server</desc>
				<v:textBlock v:margins="rect(4,4,4,4)"/>
				<v:textRect cx="54.3625" cy="779.307" width="108.73" height="25.3863"/>
				<rect x="0" y="766.614" width="108.725" height="25.3863" class="st6"/>
				<text x="18.24" y="782.91" class="st3" v:langID="1033"><v:paragraph v:horizAlign="1"/><v:tabList/>Testbed server</text>			</g>
			<g id="shape29-83" v:mID="29" v:groupContext="shape" transform="translate(181.354,-77.111)">
				<title>Sheet.29</title>
				<path d="M0 792 L42.13 792" class="st7"/>
			</g>
			<g id="shape30-86" v:mID="30" v:groupContext="shape" transform="translate(147.082,-137.086)">
				<title>Sheet.30</title>
				<path d="M0 792 L9.28 792" class="st8"/>
			</g>
			<g id="shape31-89" v:mID="31" v:groupContext="shape" transform="translate(147.082,-132.802)">
				<title>Sheet.31</title>
				<path d="M0 792 L9.28 792" class="st8"/>
			</g>
			<g id="shape33-92" v:mID="33" v:groupContext="shape" transform="translate(147.082,-128.518)">
				<title>Sheet.33</title>
				<path d="M0 792 L9.28 792" class="st8"/>
			</g>
			<g id="shape34-95" v:mID="34" v:groupContext="shape" transform="translate(147.082,-124.234)">
				<title>Sheet.34</title>
				<path d="M0 792 L9.28 792" class="st8"/>
			</g>
			<g id="shape35-98" v:mID="35" v:groupContext="shape" transform="translate(147.082,-119.95)">
				<title>Sheet.35</title>
				<path d="M0 792 L9.28 792" class="st8"/>
			</g>
			<g id="shape36-101" v:mID="36" v:groupContext="shape" transform="translate(147.082,-115.667)">
				<title>Sheet.36</title>
				<path d="M0 792 L9.28 792" class="st8"/>
			</g>
			<g id="shape43-104" v:mID="43" v:groupContext="shape" transform="translate(147.082,-112.097)">
				<title>Sheet.43</title>
				<path d="M0 792 L9.28 792" class="st8"/>
			</g>
			<g id="shape44-107" v:mID="44" v:groupContext="shape" transform="translate(147.082,-107.813)">
				<title>Sheet.44</title>
				<path d="M0 792 L9.28 792" class="st8"/>
			</g>
			<g id="shape45-110" v:mID="45" v:groupContext="shape" transform="translate(147.082,-103.529)">
				<title>Sheet.45</title>
				<path d="M0 792 L9.28 792" class="st8"/>
			</g>
			<g id="shape46-113" v:mID="46" v:groupContext="shape" transform="translate(147.082,-99.2447)">
				<title>Sheet.46</title>
				<path d="M0 792 L9.28 792" class="st8"/>
			</g>
			<g id="shape47-116" v:mID="47" v:groupContext="shape" transform="translate(147.082,-94.9608)">
				<title>Sheet.47</title>
				<path d="M0 792 L9.28 792" class="st8"/>
			</g>
			<g id="shape48-119" v:mID="48" v:groupContext="shape" transform="translate(147.082,-90.6769)">
				<title>Sheet.48</title>
				<path d="M0 792 L9.28 792" class="st8"/>
			</g>
			<g id="shape49-122" v:mID="49" v:groupContext="shape" transform="translate(147.082,-87.1069)">
				<title>Sheet.49</title>
				<path d="M0 792 L9.28 792" class="st8"/>
			</g>
			<g id="shape50-125" v:mID="50" v:groupContext="shape" transform="translate(147.082,-82.823)">
				<title>Sheet.50</title>
				<path d="M0 792 L9.28 792" class="st8"/>
			</g>
			<g id="shape51-128" v:mID="51" v:groupContext="shape" transform="translate(147.082,-78.539)">
				<title>Sheet.51</title>
				<path d="M0 792 L9.28 792" class="st8"/>
			</g>
			<g id="shape52-131" v:mID="52" v:groupContext="shape" transform="translate(147.082,-74.2551)">
				<title>Sheet.52</title>
				<path d="M0 792 L9.28 792" class="st8"/>
			</g>
			<g id="shape53-134" v:mID="53" v:groupContext="shape" transform="translate(147.082,-69.9711)">
				<title>Sheet.53</title>
				<path d="M0 792 L9.28 792" class="st8"/>
			</g>
			<g id="shape54-137" v:mID="54" v:groupContext="shape" transform="translate(147.082,-65.6872)">
				<title>Sheet.54</title>
				<path d="M0 792 L9.28 792" class="st8"/>
			</g>
			<g id="shape61-140" v:mID="61" v:groupContext="shape" transform="translate(147.082,-62.1172)">
				<title>Sheet.61</title>
				<path d="M0 792 L9.28 792" class="st8"/>
			</g>
			<g id="shape62-143" v:mID="62" v:groupContext="shape" transform="translate(147.082,-57.8333)">
				<title>Sheet.62</title>
				<path d="M0 792 L9.28 792" class="st8"/>
			</g>
			<g id="shape63-146" v:mID="63" v:groupContext="shape" transform="translate(147.082,-53.5493)">
				<title>Sheet.63</title>
				<path d="M0 792 L9.28 792" class="st8"/>
			</g>
			<g id="shape64-149" v:mID="64" v:groupContext="shape" transform="translate(147.082,-49.2654)">
				<title>Sheet.64</title>
				<path d="M0 792 L9.28 792" class="st8"/>
			</g>
			<g id="shape65-152" v:mID="65" v:groupContext="shape" transform="translate(147.082,-44.9814)">
				<title>Sheet.65</title>
				<path d="M0 792 L9.28 792" class="st8"/>
			</g>
			<g id="shape66-155" v:mID="66" v:groupContext="shape" transform="translate(147.082,-40.6975)">
				<title>Sheet.66</title>
				<path d="M0 792 L9.28 792" class="st8"/>
			</g>
			<g id="shape135-158" v:mID="135" v:groupContext="shape" transform="translate(147.082,-36.4135)">
				<title>Sheet.135</title>
				<path d="M0 792 L9.28 792" class="st8"/>
			</g>
			<g id="shape136-161" v:mID="136" v:groupContext="shape" transform="translate(147.082,-32.1296)">
				<title>Sheet.136</title>
				<path d="M0 792 L9.28 792" class="st8"/>
			</g>
			<g id="shape137-164" v:mID="137" v:groupContext="shape" transform="translate(147.082,-27.8456)">
				<title>Sheet.137</title>
				<path d="M0 792 L9.28 792" class="st8"/>
			</g>
			<g id="shape138-167" v:mID="138" v:groupContext="shape" transform="translate(147.082,-23.5617)">
				<title>Sheet.138</title>
				<path d="M0 792 L9.28 792" class="st8"/>
			</g>
			<g id="shape139-170" v:mID="139" v:groupContext="shape" transform="translate(147.082,-19.2778)">
				<title>Sheet.139</title>
				<path d="M0 792 L9.28 792" class="st8"/>
			</g>
			<g id="shape140-173" v:mID="140" v:groupContext="shape" transform="translate(147.082,-14.9938)">
				<title>Sheet.140</title>
				<path d="M0 792 L9.28 792" class="st8"/>
			</g>
			<g id="shape141-176" v:mID="141" v:groupContext="shape" transform="translate(147.082,-10.7099)">
				<title>Sheet.141</title>
				<path d="M0 792 L9.28 792" class="st8"/>
			</g>
			<g id="shape142-179" v:mID="142" v:groupContext="shape" transform="translate(155.65,-75.8417)">
				<title>Sheet.142</title>
				<desc>Trunk</desc>
				<v:textBlock v:margins="rect(4,4,4,4)"/>
				<v:textRect cx="54.3625" cy="779.307" width="108.73" height="25.3863"/>
				<rect x="0" y="766.614" width="108.725" height="25.3863" class="st6"/>
				<text x="40.31" y="782.91" class="st3" v:langID="1033"><v:paragraph v:horizAlign="1"/><v:tabList/>Trunk</text>			</g>
			<g id="group152-182" transform="translate(25.7037,-121.735)" v:mID="152" v:groupContext="group">
				<title>Sheet.152</title>
				<g id="shape147-183" v:mID="147" v:groupContext="shape">
					<title>Sheet.147</title>
					<path d="M96.39 792 L0 792 L0 789.5" class="st8"/>
				</g>
				<g id="shape148-186" v:mID="148" v:groupContext="shape" transform="translate(-767.724,792) rotate(-90)">
					<title>Sheet.148</title>
					<path d="M0 792 L2.5 792" class="st8"/>
				</g>
				<g id="shape150-189" v:mID="150" v:groupContext="shape" transform="translate(-743.449,792) rotate(-90)">
					<title>Sheet.150</title>
					<path d="M0 792 L2.5 792" class="st8"/>
				</g>
				<g id="shape151-192" v:mID="151" v:groupContext="shape" transform="translate(-717.745,792) rotate(-90)">
					<title>Sheet.151</title>
					<path d="M0 792 L2.5 792" class="st8"/>
				</g>
			</g>
			<g id="group153-195" transform="translate(25.3467,-98.7093)" v:mID="153" v:groupContext="group">
				<title>Sheet.153</title>
				<g id="shape154-196" v:mID="154" v:groupContext="shape">
					<title>Sheet.154</title>
					<path d="M96.39 792 L0 792 L0 789.5" class="st8"/>
				</g>
				<g id="shape155-199" v:mID="155" v:groupContext="shape" transform="translate(-767.724,792) rotate(-90)">
					<title>Sheet.155</title>
					<path d="M0 792 L2.5 792" class="st8"/>
				</g>
				<g id="shape156-202" v:mID="156" v:groupContext="shape" transform="translate(-743.449,792) rotate(-90)">
					<title>Sheet.156</title>
					<path d="M0 792 L2.5 792" class="st8"/>
				</g>
				<g id="shape157-205" v:mID="157" v:groupContext="shape" transform="translate(-717.745,792) rotate(-90)">
					<title>Sheet.157</title>
					<path d="M0 792 L2.5 792" class="st8"/>
				</g>
			</g>
			<g id="group158-208" transform="translate(24.9897,-75.8615)" v:mID="158" v:groupContext="group">
				<title>Sheet.158</title>
				<g id="shape159-209" v:mID="159" v:groupContext="shape">
					<title>Sheet.159</title>
					<path d="M96.39 792 L0 792 L0 789.5" class="st8"/>
				</g>
				<g id="shape160-212" v:mID="160" v:groupContext="shape" transform="translate(-767.724,792) rotate(-90)">
					<title>Sheet.160</title>
					<path d="M0 792 L2.5 792" class="st8"/>
				</g>
				<g id="shape161-215" v:mID="161" v:groupContext="shape" transform="translate(-743.449,792) rotate(-90)">
					<title>Sheet.161</title>
					<path d="M0 792 L2.5 792" class="st8"/>
				</g>
				<g id="shape162-218" v:mID="162" v:groupContext="shape" transform="translate(-717.745,792) rotate(-90)">
					<title>Sheet.162</title>
					<path d="M0 792 L2.5 792" class="st8"/>
				</g>
			</g>
			<g id="group163-221" transform="translate(24.9897,-52.8353)" v:mID="163" v:groupContext="group">
				<title>Sheet.163</title>
				<g id="shape164-222" v:mID="164" v:groupContext="shape">
					<title>Sheet.164</title>
					<path d="M96.39 792 L0 792 L0 789.5" class="st8"/>
				</g>
				<g id="shape165-225" v:mID="165" v:groupContext="shape" transform="translate(-767.724,792) rotate(-90)">
					<title>Sheet.165</title>
					<path d="M0 792 L2.5 792" class="st8"/>
				</g>
				<g id="shape166-228" v:mID="166" v:groupContext="shape" transform="translate(-743.449,792) rotate(-90)">
					<title>Sheet.166</title>
					<path d="M0 792 L2.5 792" class="st8"/>
				</g>
				<g id="shape167-231" v:mID="167" v:groupContext="shape" transform="translate(-717.745,792) rotate(-90)">
					<title>Sheet.167</title>
					<path d="M0 792 L2.5 792" class="st8"/>
				</g>
			</g>
		</g>
		<g id="shape169-234" v:mID="169" v:groupContext="shape" transform="translate(33.75,-585)">
			<title>Sheet.169</title>
			<desc>server mgmt</desc>
			<v:textBlock v:margins="rect(4,4,4,4)"/>
			<v:textRect cx="39.375" cy="783" width="78.75" height="18"/>
			<rect x="0" y="774" width="78.75" height="18" class="st1"/>
			<text x="8.39" y="786.6" class="st3" v:langID="1033"><v:paragraph v:horizAlign="1"/><v:tabList/>server mgmt</text>		</g>
		<g id="shape170-237" v:mID="170" v:groupContext="shape" transform="translate(123.75,-585)">
			<title>Sheet.170</title>
			<desc>testbed mgmt</desc>
			<v:textBlock v:margins="rect(4,4,4,4)"/>
			<v:textRect cx="39.375" cy="782.438" width="78.75" height="19.125"/>
			<rect x="0" y="772.875" width="78.75" height="19.125" class="st1"/>
			<text x="4.96" y="786.04" class="st3" v:langID="1033"><v:paragraph v:horizAlign="1"/><v:tabList/>testbed mgmt</text>		</g>
		<g id="shape171-240" v:mID="171" v:groupContext="shape" transform="translate(866.25,207) rotate(90)">
			<title>Sheet.171</title>
			<path d="M0 792 L31.5 792" class="st8"/>
		</g>
		<g id="shape254-243" v:mID="254" v:groupContext="shape" transform="translate(957.375,207) rotate(90)">
			<title>Sheet.254</title>
			<path d="M0 792 L31.5 792" class="st8"/>
		</g>
		<g id="shape255-246" v:mID="255" v:groupContext="shape" transform="translate(9,-561.375)">
			<title>Sheet.255</title>
			<desc>Access port</desc>
			<v:textBlock v:margins="rect(4,4,4,4)"/>
			<v:textRect cx="33.5562" cy="779.307" width="67.12" height="25.3863"/>
			<rect x="0" y="766.614" width="67.1125" height="25.3863" class="st6"/>
			<text x="5.56" y="782.91" class="st3" v:langID="1033"><v:paragraph v:horizAlign="1"/><v:tabList/>Access port</text>		</g>
		<g id="shape256-249" v:mID="256" v:groupContext="shape" transform="translate(99,-561.057)">
			<title>Sheet.256</title>
			<desc>Access port</desc>
			<v:textBlock v:margins="rect(4,4,4,4)"/>
			<v:textRect cx="33.5562" cy="779.307" width="67.12" height="25.3863"/>
			<rect x="0" y="766.614" width="67.1125" height="25.3863" class="st6"/>
			<text x="5.56" y="782.91" class="st3" v:langID="1033"><v:paragraph v:horizAlign="1"/><v:tabList/>Access port</text>		</g>
	</g>
</svg>
