<?xml version="1.0" encoding="UTF-8" standalone="no"?>
<!DOCTYPE svg PUBLIC "-//W3C//DTD SVG 1.1//EN" "http://www.w3.org/Graphics/SVG/1.1/DTD/svg11.dtd">
<!-- Generated by Microsoft Visio, SVG Export testbed-ptf32.svg Page-1 -->
<svg xmlns="http://www.w3.org/2000/svg" xmlns:xlink="http://www.w3.org/1999/xlink" xmlns:ev="http://www.w3.org/2001/xml-events"
		xmlns:v="http://schemas.microsoft.com/visio/2003/SVGExtensions/" width="8.5in" height="11in" viewBox="0 0 612 792"
		xml:space="preserve" color-interpolation-filters="sRGB" class="st5">
	<v:documentProperties v:langID="1033" v:viewMarkup="false">
		<v:userDefs>
			<v:ud v:nameU="msvNoAutoConnect" v:val="VT0(1):26"/>
		</v:userDefs>
	</v:documentProperties>

	<style type="text/css">
	<![CDATA[
		.st1 {fill:#ffffff;stroke:#000000;stroke-linecap:round;stroke-linejoin:round;stroke-width:0.75}
		.st2 {fill:#000000;font-family:Calibri;font-size:1.00001em}
		.st3 {stroke:#000000;stroke-linecap:round;stroke-linejoin:round;stroke-width:0.75}
		.st4 {fill:none;stroke:none;stroke-linecap:round;stroke-linejoin:round;stroke-width:0.75}
		.st5 {fill:none;fill-rule:evenodd;font-size:12px;overflow:visible;stroke-linecap:square;stroke-miterlimit:3}
	]]>
	</style>

	<g v:mID="0" v:index="1" v:groupContext="foregroundPage">
		<title>Page-1</title>
		<v:pageProperties v:drawingScale="1" v:pageScale="1" v:drawingUnits="19" v:shadowOffsetX="9" v:shadowOffsetY="-9"/>
		<g id="shape1-1" v:mID="1" v:groupContext="shape" transform="translate(6.74999,-389.017)">
			<title>Sheet.1</title>
			<desc>DUT</desc>
			<v:textBlock v:margins="rect(4,4,4,4)"/>
			<v:textRect cx="266.625" cy="781.875" width="533.26" height="20.25"/>
			<rect x="0" y="771.75" width="533.25" height="20.25" class="st1"/>
			<text x="256.16" y="785.48" class="st2" v:langID="1033"><v:paragraph v:horizAlign="1"/><v:tabList/>DUT</text>		</g>
		<g id="shape6-4" v:mID="6" v:groupContext="shape" transform="translate(812.25,402.983) rotate(90)">
			<title>Sheet.6</title>
			<path d="M0 792 L42.75 792" class="st3"/>
		</g>
		<g id="shape7-7" v:mID="7" v:groupContext="shape" transform="translate(846.375,402.983) rotate(90)">
			<title>Sheet.7</title>
			<path d="M0 792 L42.75 792" class="st3"/>
		</g>
		<g id="shape8-10" v:mID="8" v:groupContext="shape" transform="translate(879.75,402.983) rotate(90)">
			<title>Sheet.8</title>
			<path d="M0 792 L42.75 792" class="st3"/>
		</g>
		<g id="shape9-13" v:mID="9" v:groupContext="shape" transform="translate(913.875,402.983) rotate(90)">
			<title>Sheet.9</title>
			<path d="M0 792 L42.75 792" class="st3"/>
		</g>
		<g id="shape10-16" v:mID="10" v:groupContext="shape" transform="translate(947.25,403.546) rotate(90)">
			<title>Sheet.10</title>
			<path d="M0 792 L42.75 792" class="st3"/>
		</g>
		<g id="shape11-19" v:mID="11" v:groupContext="shape" transform="translate(981.375,403.546) rotate(90)">
			<title>Sheet.11</title>
			<path d="M0 792 L42.75 792" class="st3"/>
		</g>
		<g id="shape12-22" v:mID="12" v:groupContext="shape" transform="translate(1014.75,403.546) rotate(90)">
			<title>Sheet.12</title>
			<path d="M0 792 L42.75 792" class="st3"/>
		</g>
		<g id="shape13-25" v:mID="13" v:groupContext="shape" transform="translate(1048.87,403.546) rotate(90)">
			<title>Sheet.13</title>
			<path d="M0 792 L42.75 792" class="st3"/>
		</g>
		<g id="shape14-28" v:mID="14" v:groupContext="shape" transform="translate(1082.25,402.983) rotate(90)">
			<title>Sheet.14</title>
			<path d="M0 792 L42.75 792" class="st3"/>
		</g>
		<g id="shape15-31" v:mID="15" v:groupContext="shape" transform="translate(1116.37,402.983) rotate(90)">
			<title>Sheet.15</title>
			<path d="M0 792 L42.75 792" class="st3"/>
		</g>
		<g id="shape16-34" v:mID="16" v:groupContext="shape" transform="translate(1149.75,402.983) rotate(90)">
			<title>Sheet.16</title>
			<path d="M0 792 L42.75 792" class="st3"/>
		</g>
		<g id="shape17-37" v:mID="17" v:groupContext="shape" transform="translate(1183.87,402.983) rotate(90)">
			<title>Sheet.17</title>
			<path d="M0 792 L42.75 792" class="st3"/>
		</g>
		<g id="shape18-40" v:mID="18" v:groupContext="shape" transform="translate(1217.25,403.546) rotate(90)">
			<title>Sheet.18</title>
			<path d="M0 792 L42.75 792" class="st3"/>
		</g>
		<g id="shape19-43" v:mID="19" v:groupContext="shape" transform="translate(1251.37,404.108) rotate(90)">
			<title>Sheet.19</title>
			<path d="M0 792 L42.75 792" class="st3"/>
		</g>
		<g id="shape20-46" v:mID="20" v:groupContext="shape" transform="translate(1284.75,402.983) rotate(90)">
			<title>Sheet.20</title>
			<path d="M0 792 L42.75 792" class="st3"/>
		</g>
		<g id="shape21-49" v:mID="21" v:groupContext="shape" transform="translate(1318.87,402.983) rotate(90)">
			<title>Sheet.21</title>
			<path d="M0 792 L42.75 792" class="st3"/>
		</g>
		<g id="shape23-52" v:mID="23" v:groupContext="shape" transform="translate(9,-320.172)">
			<title>Sheet.23</title>
			<desc>PTF (32 ports)</desc>
			<v:textBlock v:margins="rect(4,4,4,4)"/>
			<v:textRect cx="266.625" cy="778.5" width="533.25" height="27"/>
			<rect x="0" y="765" width="533.25" height="27" class="st1"/>
			<text x="232.65" y="782.1" class="st2" v:langID="1033"><v:paragraph v:horizAlign="1"/><v:tabList/>PTF (32 ports)</text>		</g>
		<g id="shape28-55" v:mID="28" v:groupContext="shape" transform="translate(533.25,-322.672)">
			<title>Sheet.28</title>
			<desc>Servers</desc>
			<v:textBlock v:margins="rect(4,4,4,4)"/>
			<v:textRect cx="33.1875" cy="782" width="66.38" height="20"/>
			<rect x="0" y="772" width="66.375" height="20" class="st4"/>
			<text x="15.22" y="785.6" class="st2" v:langID="1033"><v:paragraph v:horizAlign="1"/><v:tabList/>Servers</text>		</g>
	</g>
</svg>
